<?xml version="1.0" encoding="UTF-8"?>
<svg width="116px" height="300px" viewBox="0 0 116 300" version="1.1" xmlns="http://www.w3.org/2000/svg" xmlns:xlink="http://www.w3.org/1999/xlink">
    <!-- Generator: Sketch 40.3 (33839) - http://www.bohemiancoding.com/sketch -->
    <title>cal</title>
    <desc>Created with Sketch.</desc>
    <defs>
        <filter x="-50%" y="-50%" width="200%" height="200%" filterUnits="objectBoundingBox" id="filter-1">
            <feOffset dx="0" dy="1" in="SourceAlpha" result="shadowOffsetOuter1"></feOffset>
            <feGaussianBlur stdDeviation="1" in="shadowOffsetOuter1" result="shadowBlurOuter1"></feGaussianBlur>
            <feColorMatrix values="0 0 0 0 0.394850128   0 0 0 0 0.394850128   0 0 0 0 0.394850128  0 0 0 0.5 0" type="matrix" in="shadowBlurOuter1" result="shadowMatrixOuter1"></feColorMatrix>
            <feMerge>
                <feMergeNode in="shadowMatrixOuter1"></feMergeNode>
                <feMergeNode in="SourceGraphic"></feMergeNode>
            </feMerge>
        </filter>
    </defs>
    <g id="Page-1" stroke="none" stroke-width="1" fill="none" fill-rule="evenodd">
        <g id="Artboard-4-Copy" transform="translate(-943.000000, -222.000000)">
            <g id="cal" filter="url(#filter-1)" transform="translate(945.000000, 223.000000)">
                <polygon id="Fill-1" fill="#E9C4AE" points="48 48 56 48 56 40 48 40"></polygon>
                <polygon id="Fill-2" fill="#151F45" points="48 80 56 80 56 72 48 72"></polygon>
                <polygon id="Fill-3" fill="#1E201D" points="40 184 48 184 48 176 40 176"></polygon>
                <polygon id="Fill-4" fill="#1E201D" points="32 184 40 184 40 176 32 176"></polygon>
                <polygon id="Fill-5" fill="#1E201D" points="40 192 48 192 48 184 40 184"></polygon>
                <polygon id="Fill-6" fill="#1E201D" points="32 192 40 192 40 184 32 184"></polygon>
                <polygon id="Fill-7" fill="#1E201D" points="32 200 40 200 40 192 32 192"></polygon>
                <polygon id="Fill-8" fill="#1E201D" points="32 208 40 208 40 200 32 200"></polygon>
                <polygon id="Fill-9" fill="#1E201D" points="32 216 40 216 40 208 32 208"></polygon>
                <polygon id="Fill-10" fill="#1E201D" points="32 224 40 224 40 216 32 216"></polygon>
                <polygon id="Fill-11" fill="#35202A" points="32 232 40 232 40 224 32 224"></polygon>
                <polygon id="Fill-12" fill="#1E201D" points="40 240 48 240 48 232 40 232"></polygon>
                <polygon id="Fill-13" fill="#1E201D" points="40 248 48 248 48 240 40 240"></polygon>
                <polygon id="Fill-14" fill="#1E201D" points="40 256 48 256 48 248 40 248"></polygon>
                <polygon id="Fill-15" fill="#1E201D" points="40 264 48 264 48 256 40 256"></polygon>
                <polygon id="Fill-16" fill="#1E201D" points="40 272 48 272 48 264 40 264"></polygon>
                <polygon id="Fill-17" fill="#1E201D" points="40 280 48 280 48 272 40 272"></polygon>
                <polygon id="Fill-18" fill="#25130C" points="40 288 48 288 48 280 40 280"></polygon>
                <polygon id="Fill-19" fill="#25130C" points="40 296 48 296 48 288 40 288"></polygon>
                <polygon id="Fill-20" fill="#25130C" points="32 296 40 296 40 288 32 288"></polygon>
                <polygon id="Fill-21" fill="#25130C" points="24 296 32 296 32 288 24 288"></polygon>
                <polygon id="Fill-22" fill="#32322E" points="32 288 40 288 40 280 32 280"></polygon>
                <polygon id="Fill-23" fill="#32322E" points="32 280 40 280 40 272 32 272"></polygon>
                <polygon id="Fill-24" fill="#32322E" points="32 272 40 272 40 264 32 264"></polygon>
                <polygon id="Fill-25" fill="#32322E" points="32 264 40 264 40 256 32 256"></polygon>
                <polygon id="Fill-26" fill="#32322E" points="32 256 40 256 40 248 32 248"></polygon>
                <polygon id="Fill-27" fill="#32322E" points="32 248 40 248 40 240 32 240"></polygon>
                <polygon id="Fill-28" fill="#724551" points="32 240 40 240 40 232 32 232"></polygon>
                <polygon id="Fill-29" fill="#32322E" points="32 232 40 232 40 224 32 224"></polygon>
                <polygon id="Fill-30" fill="#32322E" points="24 232 32 232 32 224 24 224"></polygon>
                <polygon id="Fill-31" fill="#32322E" points="24 224 32 224 32 216 24 216"></polygon>
                <polygon id="Fill-32" fill="#32322E" points="24 216 32 216 32 208 24 208"></polygon>
                <polygon id="Fill-33" fill="#32322E" points="24 208 32 208 32 200 24 200"></polygon>
                <polygon id="Fill-34" fill="#32322E" points="24 200 32 200 32 192 24 192"></polygon>
                <polygon id="Fill-35" fill="#32322E" points="24 192 32 192 32 184 24 184"></polygon>
                <polygon id="Fill-36" fill="#32322E" points="24 184 32 184 32 176 24 176"></polygon>
                <polygon id="Fill-37" fill="#1E201D" points="40 232 48 232 48 224 40 224"></polygon>
                <polygon id="Fill-38" fill="#1E201D" points="40 224 48 224 48 216 40 216"></polygon>
                <polygon id="Fill-39" fill="#1E201D" points="40 216 48 216 48 208 40 208"></polygon>
                <polygon id="Fill-40" fill="#1E201D" points="40 208 48 208 48 200 40 200"></polygon>
                <polygon id="Fill-41" fill="#1E201D" points="40 200 48 200 48 192 40 192"></polygon>
                <polygon id="Fill-42" fill="#1E201D" points="32 240 40 240 40 232 32 232"></polygon>
                <polygon id="Fill-43" fill="#1E201D" points="80 184 88 184 88 176 80 176"></polygon>
                <polygon id="Fill-44" fill="#1E201D" points="72 184 80 184 80 176 72 176"></polygon>
                <polygon id="Fill-45" fill="#1E201D" points="80 192 88 192 88 184 80 184"></polygon>
                <polygon id="Fill-46" fill="#1E201D" points="72 192 80 192 80 184 72 184"></polygon>
                <polygon id="Fill-47" fill="#1E201D" points="72 200 80 200 80 192 72 192"></polygon>
                <polygon id="Fill-48" fill="#1E201D" points="72 208 80 208 80 200 72 200"></polygon>
                <polygon id="Fill-49" fill="#1E201D" points="72 216 80 216 80 208 72 208"></polygon>
                <polygon id="Fill-50" fill="#1E201D" points="72 224 80 224 80 216 72 216"></polygon>
                <polygon id="Fill-51" fill="#35202A" points="72 232 80 232 80 224 72 224"></polygon>
                <polygon id="Fill-52" fill="#1E201D" points="80 240 88 240 88 232 80 232"></polygon>
                <polygon id="Fill-53" fill="#1E201D" points="80 248 88 248 88 240 80 240"></polygon>
                <polygon id="Fill-54" fill="#1E201D" points="80 256 88 256 88 248 80 248"></polygon>
                <polygon id="Fill-55" fill="#1E201D" points="80 264 88 264 88 256 80 256"></polygon>
                <polygon id="Fill-56" fill="#1E201D" points="80 272 88 272 88 264 80 264"></polygon>
                <polygon id="Fill-57" fill="#1E201D" points="80 280 88 280 88 272 80 272"></polygon>
                <polygon id="Fill-58" fill="#25130C" points="80 288 88 288 88 280 80 280"></polygon>
                <polygon id="Fill-59" fill="#25130C" points="80 296 88 296 88 288 80 288"></polygon>
                <polygon id="Fill-60" fill="#25130C" points="72 296 80 296 80 288 72 288"></polygon>
                <polygon id="Fill-61" fill="#25130C" points="64 296 72 296 72 288 64 288"></polygon>
                <polygon id="Fill-62" fill="#32322E" points="72 288 80 288 80 280 72 280"></polygon>
                <polygon id="Fill-63" fill="#32322E" points="72 280 80 280 80 272 72 272"></polygon>
                <polygon id="Fill-64" fill="#32322E" points="72 272 80 272 80 264 72 264"></polygon>
                <polygon id="Fill-65" fill="#32322E" points="72 264 80 264 80 256 72 256"></polygon>
                <polygon id="Fill-66" fill="#32322E" points="72 256 80 256 80 248 72 248"></polygon>
                <polygon id="Fill-67" fill="#32322E" points="72 248 80 248 80 240 72 240"></polygon>
                <polygon id="Fill-68" fill="#724551" points="72 240 80 240 80 232 72 232"></polygon>
                <polygon id="Fill-69" fill="#32322E" points="72 232 80 232 80 224 72 224"></polygon>
                <polygon id="Fill-70" fill="#32322E" points="64 232 72 232 72 224 64 224"></polygon>
                <polygon id="Fill-71" fill="#32322E" points="64 224 72 224 72 216 64 216"></polygon>
                <polygon id="Fill-72" fill="#32322E" points="64 216 72 216 72 208 64 208"></polygon>
                <polygon id="Fill-73" fill="#32322E" points="64 208 72 208 72 200 64 200"></polygon>
                <polygon id="Fill-74" fill="#32322E" points="64 200 72 200 72 192 64 192"></polygon>
                <polygon id="Fill-75" fill="#32322E" points="64 192 72 192 72 184 64 184"></polygon>
                <polygon id="Fill-76" fill="#32322E" points="64 184 72 184 72 176 64 176"></polygon>
                <polygon id="Fill-77" fill="#32322E" points="72 176 80 176 80 168 72 168"></polygon>
                <polygon id="Fill-78" fill="#32322E" points="80 168 88 168 88 160 80 160"></polygon>
                <polygon id="Fill-79" fill="#B97C2A" points="72 168 80 168 80 160 72 160"></polygon>
                <polygon id="Fill-80" fill="#B97C2A" points="64 168 72 168 72 160 64 160"></polygon>
                <polygon id="Fill-81" fill="#B97C2A" points="56 168 64 168 64 160 56 160"></polygon>
                <polygon id="Fill-82" fill="#B97C2A" points="48 168 56 168 56 160 48 160"></polygon>
                <polygon id="Fill-83" fill="#B97C2A" points="40 168 48 168 48 160 40 160"></polygon>
                <polygon id="Fill-84" fill="#B97C2A" points="32 168 40 168 40 160 32 160"></polygon>
                <polygon id="Fill-85" fill="#E17626" points="72 160 80 160 80 152 72 152"></polygon>
                <polygon id="Fill-86" fill="#E17626" points="64 160 72 160 72 152 64 152"></polygon>
                <polygon id="Fill-87" fill="#DC9C26" points="56 160 64 160 64 152 56 152"></polygon>
                <polygon id="Fill-88" fill="#B86027" points="48 160 56 160 56 152 48 152"></polygon>
                <polygon id="Fill-89" fill="#E17626" points="40 160 48 160 48 152 40 152"></polygon>
                <polygon id="Fill-90" fill="#E17626" points="32 160 40 160 40 152 32 152"></polygon>
                <polygon id="Fill-91" fill="#C35D27" points="24 160 32 160 32 152 24 152"></polygon>
                <polygon id="Fill-92" fill="#C35D27" points="24 152 32 152 32 144 24 144"></polygon>
                <polygon id="Fill-93" fill="#C35D27" points="24 144 32 144 32 136 24 136"></polygon>
                <polygon id="Fill-94" fill="#E17626" points="72 152 80 152 80 144 72 144"></polygon>
                <polygon id="Fill-95" fill="#E17626" points="64 152 72 152 72 144 64 144"></polygon>
                <polygon id="Fill-96" fill="#DC9C26" points="56 152 64 152 64 144 56 144"></polygon>
                <polygon id="Fill-97" fill="#B86027" points="48 152 56 152 56 144 48 144"></polygon>
                <polygon id="Fill-98" fill="#E17626" points="40 152 48 152 48 144 40 144"></polygon>
                <polygon id="Fill-99" fill="#E17626" points="32 152 40 152 40 144 32 144"></polygon>
                <polygon id="Fill-100" fill="#E17626" points="72 144 80 144 80 136 72 136"></polygon>
                <polygon id="Fill-101" fill="#E17626" points="64 144 72 144 72 136 64 136"></polygon>
                <polygon id="Fill-102" fill="#DC9C26" points="56 144 64 144 64 136 56 136"></polygon>
                <polygon id="Fill-103" fill="#B86027" points="48 144 56 144 56 136 48 136"></polygon>
                <polygon id="Fill-104" fill="#E17626" points="40 144 48 144 48 136 40 136"></polygon>
                <polygon id="Fill-105" fill="#E17626" points="32 144 40 144 40 136 32 136"></polygon>
                <polygon id="Fill-106" fill="#E17626" points="72 136 80 136 80 128 72 128"></polygon>
                <polygon id="Fill-107" fill="#E17626" points="64 136 72 136 72 128 64 128"></polygon>
                <polygon id="Fill-108" fill="#DC9C26" points="56 136 64 136 64 128 56 128"></polygon>
                <polygon id="Fill-109" fill="#B86027" points="48 136 56 136 56 128 48 128"></polygon>
                <polygon id="Fill-110" fill="#E17626" points="40 136 48 136 48 128 40 128"></polygon>
                <polygon id="Fill-111" fill="#E17626" points="32 136 40 136 40 128 32 128"></polygon>
                <polygon id="Fill-112" fill="#E17626" points="24 136 32 136 32 128 24 128"></polygon>
                <polygon id="Fill-113" fill="#E17626" points="24 128 32 128 32 120 24 120"></polygon>
                <polygon id="Fill-114" fill="#E17626" points="24 120 32 120 32 112 24 112"></polygon>
                <polygon id="Fill-115" fill="#E17626" points="24 112 32 112 32 104 24 104"></polygon>
                <polygon id="Fill-116" fill="#E17626" points="24 104 32 104 32 96 24 96"></polygon>
                <polygon id="Fill-117" fill="#E17626" points="24 96 32 96 32 88 24 88"></polygon>
                <polygon id="Fill-118" fill="#E17626" points="24 88 32 88 32 80 24 80"></polygon>
                <polygon id="Fill-119" fill="#E17626" points="72 128 80 128 80 120 72 120"></polygon>
                <polygon id="Fill-120" fill="#E17626" points="64 128 72 128 72 120 64 120"></polygon>
                <polygon id="Fill-121" fill="#DC9C26" points="56 128 64 128 64 120 56 120"></polygon>
                <polygon id="Fill-122" fill="#B86027" points="48 128 56 128 56 120 48 120"></polygon>
                <polygon id="Fill-123" fill="#E17626" points="40 128 48 128 48 120 40 120"></polygon>
                <polygon id="Fill-124" fill="#E17626" points="32 128 40 128 40 120 32 120"></polygon>
                <polygon id="Fill-125" fill="#E17626" points="72 120 80 120 80 112 72 112"></polygon>
                <polygon id="Fill-126" fill="#E17626" points="64 120 72 120 72 112 64 112"></polygon>
                <polygon id="Fill-127" fill="#DC9C26" points="56 120 64 120 64 112 56 112"></polygon>
                <polygon id="Fill-128" fill="#B86027" points="48 120 56 120 56 112 48 112"></polygon>
                <polygon id="Fill-129" fill="#E17626" points="40 120 48 120 48 112 40 112"></polygon>
                <polygon id="Fill-130" fill="#E17626" points="32 120 40 120 40 112 32 112"></polygon>
                <polygon id="Fill-131" fill="#E17626" points="72 112 80 112 80 104 72 104"></polygon>
                <polygon id="Fill-132" fill="#E17626" points="64 112 72 112 72 104 64 104"></polygon>
                <polygon id="Fill-133" fill="#DC9C26" points="56 112 64 112 64 104 56 104"></polygon>
                <polygon id="Fill-134" fill="#B86027" points="48 112 56 112 56 104 48 104"></polygon>
                <polygon id="Fill-135" fill="#E17626" points="40 112 48 112 48 104 40 104"></polygon>
                <polygon id="Fill-136" fill="#E17626" points="32 112 40 112 40 104 32 104"></polygon>
                <polygon id="Fill-137" fill="#E17626" points="72 104 80 104 80 96 72 96"></polygon>
                <polygon id="Fill-138" fill="#E17626" points="64 104 72 104 72 96 64 96"></polygon>
                <polygon id="Fill-139" fill="#DC9C26" points="56 104 64 104 64 96 56 96"></polygon>
                <polygon id="Fill-140" fill="#B86027" points="48 104 56 104 56 96 48 96"></polygon>
                <polygon id="Fill-141" fill="#E17626" points="40 104 48 104 48 96 40 96"></polygon>
                <polygon id="Fill-142" fill="#E17626" points="32 104 40 104 40 96 32 96"></polygon>
                <polygon id="Fill-143" fill="#E17626" points="72 96 80 96 80 88 72 88"></polygon>
                <polygon id="Fill-144" fill="#E17626" points="64 96 72 96 72 88 64 88"></polygon>
                <polygon id="Fill-145" fill="#DC9C26" points="56 96 64 96 64 88 56 88"></polygon>
                <polygon id="Fill-146" fill="#B86027" points="48 96 56 96 56 88 48 88"></polygon>
                <polygon id="Fill-147" fill="#B86027" points="32 96 40 96 40 88 32 88"></polygon>
                <polygon id="Fill-148" fill="#E17626" points="40 96 48 96 48 88 40 88"></polygon>
                <polygon id="Fill-149" fill="#DC9C26" points="32 96 40 96 40 88 32 88"></polygon>
                <polygon id="Fill-150" fill="#DC9C26" points="24 96 32 96 32 88 24 88"></polygon>
                <polygon id="Fill-151" fill="#E17626" points="72 88 80 88 80 80 72 80"></polygon>
                <polygon id="Fill-152" fill="#E17626" points="64 88 72 88 72 80 64 80"></polygon>
                <polygon id="Fill-153" fill="#B86027" points="72 80 80 80 80 72 72 72"></polygon>
                <polygon id="Fill-154" fill="#C35D27" points="80 160 88 160 88 152 80 152"></polygon>
                <polygon id="Fill-155" fill="#C35D27" points="80 152 88 152 88 144 80 144"></polygon>
                <polygon id="Fill-156" fill="#E17626" points="80 144 88 144 88 136 80 136"></polygon>
                <polygon id="Fill-157" fill="#E17626" points="80 136 88 136 88 128 80 128"></polygon>
                <polygon id="Fill-158" fill="#E17626" points="80 128 88 128 88 120 80 120"></polygon>
                <polygon id="Fill-159" fill="#E17626" points="80 120 88 120 88 112 80 112"></polygon>
                <polygon id="Fill-160" fill="#E17626" points="80 112 88 112 88 104 80 104"></polygon>
                <polygon id="Fill-161" fill="#E17626" points="80 104 88 104 88 96 80 96"></polygon>
                <polygon id="Fill-162" fill="#E17626" points="80 96 88 96 88 88 80 88"></polygon>
                <polygon id="Fill-163" fill="#C35D27" points="80 88 88 88 88 80 80 80"></polygon>
                <polygon id="Fill-164" fill="#C35D27" points="80 80 88 80 88 72 80 72"></polygon>
                <polygon id="Fill-165" fill="#E17626" points="24 80 32 80 32 72 24 72"></polygon>
                <polygon id="Fill-166" fill="#E17626" points="16 80 24 80 24 72 16 72"></polygon>
                <polygon id="Fill-167" fill="#E17626" points="16 88 24 88 24 80 16 80"></polygon>
                <polygon id="Fill-168" fill="#E17626" points="16 96 24 96 24 88 16 88"></polygon>
                <polygon id="Fill-169" fill="#E17626" points="16 144 24 144 24 136 16 136"></polygon>
                <polygon id="Fill-170" fill="#E17626" points="16 152 24 152 24 144 16 144"></polygon>
                <polygon id="Fill-171" fill="#E17626" points="16 160 24 160 24 152 16 152"></polygon>
                <polygon id="Fill-172" fill="#C35D27" points="8 128 16 128 16 120 8 120"></polygon>
                <polygon id="Fill-173" fill="#E17626" points="8 136 16 136 16 128 8 128"></polygon>
                <polygon id="Fill-174" fill="#E17626" points="8 144 16 144 16 136 8 136"></polygon>
                <polygon id="Fill-175" fill="#E17626" points="0 112 8 112 8 104 0 104"></polygon>
                <polygon id="Fill-176" fill="#E17626" points="0 120 8 120 8 112 0 112"></polygon>
                <polygon id="Fill-177" fill="#E17626" points="0 128 8 128 8 120 0 120"></polygon>
                <polygon id="Fill-178" fill="#E17626" points="0 136 8 136 8 127.996 0 127.996"></polygon>
                <polygon id="Fill-179" fill="#E17626" points="8 104 16 104 16 96 8 96"></polygon>
                <polygon id="Fill-180" fill="#E17626" points="8 96 16 96 16 88 8 88"></polygon>
                <polygon id="Fill-181" fill="#E17626" points="0 104 8 104 8 95.996 0 95.996"></polygon>
                <polygon id="Fill-182" fill="#E17626" points="8 88 16 88 16 80 8 80"></polygon>
                <polygon id="Fill-183" fill="#C35D27" points="8 112 16 112 16 104 8 104"></polygon>
                <polygon id="Fill-184" fill="#C35D27" points="8 120 16 120 16 112 8 112"></polygon>
                <polygon id="Fill-185" fill="#B74E26" points="88 80 96 80 96 72 88 72"></polygon>
                <polygon id="Fill-186" fill="#B74E26" points="88 88 96 88 96 80 88 80"></polygon>
                <polygon id="Fill-187" fill="#C35D27" points="88 96 96 96 96 88 88 88"></polygon>
                <polygon id="Fill-188" fill="#C35D27" points="88 104 96 104 96 96 88 96"></polygon>
                <polygon id="Fill-189" fill="#B74E26" points="96 88 104 88 104 80 96 80"></polygon>
                <polygon id="Fill-190" fill="#B74E26" points="96 96 104 96 104 88 96 88"></polygon>
                <polygon id="Fill-191" fill="#B74E26" points="96 104 104 104 104 96 96 96"></polygon>
                <polygon id="Fill-192" fill="#B74E26" points="96 112 104 112 104 104 96 104"></polygon>
                <polygon id="Fill-193" fill="#B74E26" points="96 120 104 120 104 112 96 112"></polygon>
                <polygon id="Fill-194" fill="#B74E26" points="96 128 104 128 104 120 96 120"></polygon>
                <polygon id="Fill-195" fill="#B74E26" points="104 96 112 96 112 88 104 88"></polygon>
                <polygon id="Fill-196" fill="#B74E26" points="104 104 112 104 112 95.996 104 95.996"></polygon>
                <polygon id="Fill-197" fill="#B74E26" points="104 112 112 112 112 104 104 104"></polygon>
                <polygon id="Fill-198" fill="#B74E26" points="104 120 112 120 112 112 104 112"></polygon>
                <polygon id="Fill-199" fill="#B74E26" points="104 128 112 128 112 120 104 120"></polygon>
                <polygon id="Fill-200" fill="#B74E26" points="104 136 112 136 112 127.996 104 127.996"></polygon>
                <polygon id="Fill-201" fill="#B74E26" points="96 136 104 136 104 128 96 128"></polygon>
                <polygon id="Fill-202" fill="#B74E26" points="96 136 104 136 104 128 96 128"></polygon>
                <polygon id="Fill-203" fill="#B74E26" points="88 136 96 136 96 128 88 128"></polygon>
                <polygon id="Fill-204" fill="#B74E26" points="96 144 104 144 104 136 96 136"></polygon>
                <polygon id="Fill-205" fill="#B74E26" points="88 144 96 144 96 136 88 136"></polygon>
                <polygon id="Fill-206" fill="#B74E26" points="88 152 96 152 96 144 88 144"></polygon>
                <polygon id="Fill-207" fill="#B74E26" points="88 160 96 160 96 152 88 152"></polygon>
                <polygon id="Fill-208" fill="#B86027" points="64 80 72 80 72 72 64 72"></polygon>
                <polygon id="Fill-209" fill="#B86027" points="72 72 80 72 80 64 72 64"></polygon>
                <polygon id="Fill-210" fill="#2B2B25" points="64 64 72 64 72 56 64 56"></polygon>
                <polygon id="Fill-211" fill="#2B2B25" points="40 64 48 64 48 56 40 56"></polygon>
                <polygon id="Fill-212" fill="#B86027" points="32 72 40 72 40 64 32 64"></polygon>
                <polygon id="Fill-213" fill="#DC9C26" points="56 88 64 88 64 80 56 80"></polygon>
                <polygon id="Fill-214" fill="#B86027" points="48 88 56 88 56 80 48 80"></polygon>
                <polygon id="Fill-215" fill="#151F45" points="56 80 64 80 64 72 56 72"></polygon>
                <polygon id="Fill-216" fill="#151F45" points="64 72 72 72 72 64 64 64"></polygon>
                <polygon id="Fill-217" fill="#E9C4AE" points="56 72 64 72 64 64 56 64"></polygon>
                <polygon id="Fill-218" fill="#E9C4AE" points="56 64 64 64 64 56 56 56"></polygon>
                <polygon id="Fill-219" fill="#E9C4AE" points="56 56 64 56 64 48 56 48"></polygon>
                <polygon id="Fill-220" fill="#D3A897" points="48 56 56 56 56 48 48 48"></polygon>
                <polygon id="Fill-221" fill="#D3A897" points="40 56 48 56 48 48 40 48"></polygon>
                <polygon id="Fill-222" fill="#E9C4AE" points="40 48 48 48 48 40 40 40"></polygon>
                <polygon id="Fill-223" fill="#E9C4AE" points="32 48 40 48 40 40 32 40"></polygon>
                <polygon id="Fill-224" fill="#E9C4AE" points="40 40 48 40 48 32 40 32"></polygon>
                <polygon id="Fill-225" fill="#E9C4AE" points="40 32 48 32 48 24 40 24"></polygon>
                <polygon id="Fill-226" fill="#E9C4AE" points="40 24 48 24 48 16 40 16"></polygon>
                <polygon id="Fill-227" fill="#E9C4AE" points="32 40 40 40 40 32 32 32"></polygon>
                <polygon id="Fill-228" fill="#392A2A" points="32 32 40 32 40 24 32 24"></polygon>
                <polygon id="Fill-229" fill="#E9C4AE" points="32 24 40 24 40 16 32 16"></polygon>
                <polygon id="Fill-230" fill="#E9C4AE" points="48 24 56 24 56 16 48 16"></polygon>
                <polygon id="Fill-231" fill="#E9C4AE" points="56 24 64 24 64 16 56 16"></polygon>
                <polygon id="Fill-232" fill="#3B2213" points="64 24 72 24 72 16 64 16"></polygon>
                <polygon id="Fill-233" fill="#3B2213" points="64 16 72 16 72 8 64 8"></polygon>
                <polygon id="Fill-234" fill="#3B2213" points="56 16 64 16 64 8 56 8"></polygon>
                <polygon id="Fill-235" fill="#482A18" points="48 16 56 16 56 8 48 8"></polygon>
                <polygon id="Fill-236" fill="#482A18" points="40 16 48 16 48 8 40 8"></polygon>
                <polygon id="Fill-237" fill="#482A18" points="40 8 48 8 48 0 40 0"></polygon>
                <polygon id="Fill-238" fill="#482A18" points="32 8 40 8 40 0 32 0"></polygon>
                <polygon id="Fill-239" fill="#3B2213" points="48 8 56.004 8 56.004 0 48 0"></polygon>
                <polygon id="Fill-240" fill="#3B2213" points="56 8 64 8 64 0 56 0"></polygon>
                <polygon id="Fill-241" fill="#482A18" points="32 16 40 16 40 8 32 8"></polygon>
                <polygon id="Fill-242" fill="#3B2213" points="64 32 72 32 72 24 64 24"></polygon>
                <polygon id="Fill-243" fill="#D3A897" points="64 40 72 40 72 32 64 32"></polygon>
                <polygon id="Fill-244" fill="#3B2213" points="40 48 48 48 48 40 40 40"></polygon>
                <polygon id="Fill-245" fill="#3B2213" points="32 48 40 48 40 40 32 40"></polygon>
                <polygon id="Fill-246" fill="#E9C4AE" points="56 40 64 40 64 32 56 32"></polygon>
                <polygon id="Fill-247" fill="#E9C4AE" points="56 48 64 48 64 40 56 40"></polygon>
                <polygon id="Fill-248" fill="#E9C4AE" points="48 32 56 32 56 24 48 24"></polygon>
                <polygon id="Fill-249" fill="#E9C4AE" points="48 40 56 40 56 32 48 32"></polygon>
                <polygon id="Fill-250" fill="#E9C4AE" points="56 32 64 32 64 24 56 24"></polygon>
                <polygon id="Fill-251" fill="#D3A897" points="48 64 56 64 56 56 48 56"></polygon>
                <polygon id="Fill-252" fill="#D3A897" points="48 72 56 72 56 64 48 64"></polygon>
                <polygon id="Fill-253" fill="#E9C4AE" points="48 80 56 80 56 72 48 72"></polygon>
                <polygon id="Fill-254" fill="#151F45" points="40 72 48 72 48 64 40 64"></polygon>
                <polygon id="Fill-255" fill="#151F45" points="48 80 56 80 56 72 48 72"></polygon>
                <polygon id="Fill-256" fill="#E17626" points="40 88 48 88 48 80 40 80"></polygon>
                <polygon id="Fill-257" fill="#E17626" points="32 88 40 88 40 80 32 80"></polygon>
                <polygon id="Fill-258" fill="#B86027" points="40 80 48 80 48 72 40 72"></polygon>
                <polygon id="Fill-259" fill="#B86027" points="32 80 40 80 40 72 32 72"></polygon>
                <polygon id="Fill-260" fill="#32322E" points="24 168 32 168 32 160 24 160"></polygon>
                <polygon id="Fill-261" fill="#1E201D" points="80 176 88 176 88 168 80 168"></polygon>
                <polygon id="Fill-262" fill="#32322E" points="64 176 72 176 72 168 64 168"></polygon>
                <polygon id="Fill-263" fill="#32322E" points="56 176 64 176 64 168 56 168"></polygon>
                <polygon id="Fill-264" fill="#32322E" points="48 176 56 176 56 168 48 168"></polygon>
                <polygon id="Fill-265" fill="#32322E" points="40 176 48 176 48 168 40 168"></polygon>
                <polygon id="Fill-266" fill="#32322E" points="32 176 40 176 40 168 32 168"></polygon>
                <polygon id="Fill-267" fill="#32322E" points="24 176 32 176 32 168 24 168"></polygon>
                <polygon id="Fill-268" fill="#1E201D" points="80 232 88 232 88 224 80 224"></polygon>
                <polygon id="Fill-269" fill="#1E201D" points="80 224 88 224 88 216 80 216"></polygon>
                <polygon id="Fill-270" fill="#1E201D" points="80 216 88 216 88 208 80 208"></polygon>
                <polygon id="Fill-271" fill="#1E201D" points="80 208 88 208 88 200 80 200"></polygon>
                <polygon id="Fill-272" fill="#1E201D" points="80 200 88 200 88 192 80 192"></polygon>
                <polygon id="Fill-273" fill="#1E201D" points="72 240 80 240 80 232 72 232"></polygon>
                <polygon id="Fill-274" fill="#392A2A" points="48 32 56 32 56 24 48 24"></polygon>
            </g>
        </g>
    </g>
</svg>