<?xml version="1.0" encoding="UTF-8"?>
<svg width="53px" height="53px" viewBox="0 0 53 53" version="1.1" xmlns="http://www.w3.org/2000/svg" xmlns:xlink="http://www.w3.org/1999/xlink">
    <!-- Generator: Sketch 40.3 (33839) - http://www.bohemiancoding.com/sketch -->
    <title>logo_dark</title>
    <desc>Created with Sketch.</desc>
    <defs></defs>
    <g id="Page-1" stroke="none" stroke-width="1" fill="none" fill-rule="evenodd">
        <g id="Artboard-4-Copy" transform="translate(-111.000000, -219.000000)" fill="#091025">
            <g id="logo_dark" transform="translate(111.000000, 219.000000)">
                <path d="M26.311726,52.623452 C40.8432918,52.623452 52.623452,40.8432918 52.623452,26.311726 C52.623452,11.7801603 40.8432918,-3.55271368e-15 26.311726,-3.55271368e-15 C11.7801603,-3.55271368e-15 8.52651283e-14,11.7801603 8.52651283e-14,26.311726 C8.52651283e-14,40.8432918 11.7801603,52.623452 26.311726,52.623452 Z M30.3723089,20.7860608 L27.1592663,20.7860608 L29.0233942,22.6653578 L29.3557691,22.6653578 C30.8768501,22.6653578 32.2033922,22.8318154 33.2982363,23.1601897 C34.3889658,23.487526 35.3003286,24.0149227 36.0069949,24.7277193 C36.7121181,25.4396076 37.2395462,26.3741314 37.5746212,27.5054721 C37.9099534,28.6395374 38.0799339,30.0237431 38.0799339,31.6195562 C38.0799339,33.2152397 37.9099534,34.5993157 37.5746212,35.7331214 C37.239932,36.8639432 36.7123753,37.7987264 36.0069949,38.5113932 C35.2996857,39.2243195 34.3883229,39.7515865 33.2982363,40.0785336 C32.2030065,40.4067781 30.876593,40.5732357 29.3557691,40.5732357 L25.0856844,40.5732357 L25.0856844,30.8591448 C25.0212667,30.8592745 23.0036164,30.8626478 22.9907585,30.8626478 C21.5729258,30.8626478 20.3465462,30.5912298 19.3455643,30.0560486 C18.3416251,29.5199592 17.5092093,28.8008053 16.8712039,27.9185671 C16.2306269,27.0342531 15.7512871,26.0164357 15.446428,24.8930092 C15.1405403,23.7685448 14.9853463,22.6124235 14.9853463,21.4568213 C14.9853463,20.2817579 15.1405403,19.1205768 15.446428,18.0051942 C15.7512871,16.892147 16.2306269,15.8792597 16.8712039,14.9945565 C17.5098522,14.1117993 18.342268,13.3927752 19.3455643,12.8572048 C20.3473177,12.3216343 21.5640539,12.0500866 22.9620856,12.0500866 C23.7276406,12.0500866 24.4703088,12.1656857 25.1695175,12.3936405 C25.8671832,12.6223737 26.5147034,12.9591811 27.0942057,13.3945916 C27.6724222,13.8297426 28.169763,14.3769898 28.5727274,15.0211534 C28.9753059,15.6662251 29.2691073,16.4052293 29.4459024,17.2176669 L31.6143751,17.2686551 C31.4654815,16.0667353 31.1256491,15.0531994 30.5951351,14.1832866 C30.0644925,13.3151902 29.3949854,12.5733317 28.6053862,11.9782101 C27.8152727,11.3833481 26.9237109,10.9284765 25.9555165,10.6261801 C24.9871935,10.3241433 23.9800398,10.1709193 22.9620856,10.1709193 C21.2864534,10.1709193 19.7936596,10.482557 18.5248492,11.0971396 C17.2564244,11.7122413 16.1879389,12.5503675 15.34948,13.588165 C14.511021,14.6257031 13.8735299,15.835537 13.4548791,17.1843235 C13.0363568,18.5305151 12.8242026,19.9679146 12.8242026,21.4568213 C12.8242026,22.9457279 13.0363568,24.3832572 13.4548791,25.7291893 C13.8735299,27.0782353 14.5111496,28.2830094 15.3497371,29.3101681 C16.1892247,30.3388838 17.2574531,31.1718204 18.5249777,31.7854949 C19.7845306,32.3959258 21.2651094,32.7076932 22.9262122,32.7121044 L22.9245407,42.4525327 L30.3739805,42.4525327 C33.6246965,42.3723528 36.1089574,41.4369209 37.7578453,39.6723148 C39.4058331,37.9088764 40.2414633,35.1994971 40.2414633,31.6195562 C40.2414633,28.0398749 39.4058331,25.3302361 37.7578453,23.5661489 C36.1085717,21.8020618 33.6241822,20.8666299 30.3723089,20.7860608 Z" id="Oval-2"></path>
            </g>
        </g>
    </g>
</svg>