<?xml version="1.0" encoding="UTF-8" standalone="no"?>
<svg width="148px" height="28px" viewBox="0 0 148 28" version="1.1" xmlns="http://www.w3.org/2000/svg" xmlns:xlink="http://www.w3.org/1999/xlink" xmlns:sketch="http://www.bohemiancoding.com/sketch/ns">
    <!-- Generator: Sketch 3.3.3 (12072) - http://www.bohemiancoding.com/sketch -->
    <title>wordmark</title>
    <desc>Created with Sketch.</desc>
    <defs></defs>
    <g id="Page-1" stroke="none" stroke-width="1" fill="none" fill-rule="evenodd" sketch:type="MSPage">
        <g id="home" sketch:type="MSArtboardGroup" transform="translate(-208.000000, -36.000000)" fill="#2B8C92">
            <g id="Imported-Layers" sketch:type="MSLayerGroup" transform="translate(158.000000, 27.000000)">
                <g id="wordmark" transform="translate(50.000000, 9.000000)" sketch:type="MSShapeGroup">
                    <path d="M10.2886667,1.662 C16.528,1.662 18.6966667,4.81933333 18.6966667,8.472 L18.6966667,20.19 C18.6966667,23.804 16.528,27 10.2886667,27 L0.853333333,27 L0.853333333,1.662 L10.2886667,1.662 L10.2886667,1.662 Z M5.64733333,22.7766667 L9.794,22.7766667 C13.028,22.7766667 13.9033333,21.4833333 13.9033333,19.0486667 L13.9033333,9.61333333 C13.9033333,7.17866667 13.028,5.88466667 9.794,5.88466667 L5.64733333,5.88466667 L5.64733333,22.7766667 L5.64733333,22.7766667 Z" id="Fill-1"></path>
                    <path d="M30.8693333,27.3806667 C24.5153333,27.3806667 22.8033333,23.88 22.8033333,20.076 L22.8033333,15.396 C22.8033333,11.592 24.5153333,8.09133333 30.8693333,8.09133333 C37.2226667,8.09133333 38.9346667,11.592 38.9346667,15.396 L38.9346667,20.076 C38.9346667,23.88 37.2226667,27.3806667 30.8693333,27.3806667 L30.8693333,27.3806667 Z M30.8693333,12.048 C28.396,12.048 27.4446667,13.152 27.4446667,15.244 L27.4446667,20.228 C27.4446667,22.32 28.396,23.424 30.8693333,23.424 C33.342,23.424 34.2926667,22.32 34.2926667,20.228 L34.2926667,15.244 C34.2926667,13.152 33.342,12.048 30.8693333,12.048 L30.8693333,12.048 Z" id="Fill-2"></path>
                    <path d="M44.868,27 L41.444,8.472 L45.7813333,8.472 L48.064,20.8746667 L51.754,8.472 L56.586,8.472 L60.238,20.8746667 L62.5206667,8.472 L66.858,8.472 L63.434,27 L58.07,27 L54.1513333,13.684 L50.2326667,27 L44.868,27" id="Fill-3"></path>
                    <path d="M81.1606667,27 L81.1606667,14.0646667 C81.1606667,13.0753333 80.7426667,12.5806667 79.6773333,12.5806667 C78.536,12.5806667 76.5193333,13.2653333 74.8453333,14.1406667 L74.8453333,27 L70.204,27 L70.204,8.472 L73.742,8.472 L74.1986667,10.032 C76.5193333,8.89066667 79.4486667,8.09133333 81.6173333,8.09133333 C84.6993333,8.09133333 85.8026667,10.26 85.8026667,13.57 L85.8026667,27 L81.1606667,27" id="Fill-4"></path>
                    <path d="M90.9366667,27 L90.9366667,0.901333333 L95.5786667,0.254 L95.5786667,27 L90.9366667,27" id="Fill-5"></path>
                    <path d="M100.904,0.482666667 L105.545333,0.482666667 L105.545333,5.84733333 L100.904,5.84733333 L100.904,0.482666667 Z M100.904,8.472 L105.545333,8.472 L105.545333,27 L100.904,27 L100.904,8.472 Z" id="Fill-6"></path>
                    <path d="M121.828,27 L121.828,14.0646667 C121.828,13.0753333 121.409333,12.5806667 120.344,12.5806667 C119.202667,12.5806667 117.186,13.2653333 115.512667,14.1406667 L115.512667,27 L110.870667,27 L110.870667,8.472 L114.409333,8.472 L114.865333,10.032 C117.186,8.89066667 120.116,8.09133333 122.284667,8.09133333 C125.366,8.09133333 126.469333,10.26 126.469333,13.57 L126.469333,27 L121.828,27" id="Fill-7"></path>
                    <path d="M131.604,27 L131.604,0.901333333 L136.245333,0.254 L136.245333,27 L131.604,27 L131.604,27 Z M147.354667,8.472 L141.914,17.6406667 L147.583333,27 L142.485333,27 L136.892,17.6406667 L142.180667,8.472 L147.354667,8.472 L147.354667,8.472 Z" id="Fill-8"></path>
                </g>
            </g>
        </g>
    </g>
</svg>