<?xml version="1.0" encoding="UTF-8" standalone="no"?>
<svg width="17px" height="16px" viewBox="0 0 17 16" version="1.1" xmlns="http://www.w3.org/2000/svg" xmlns:xlink="http://www.w3.org/1999/xlink" xmlns:sketch="http://www.bohemiancoding.com/sketch/ns">
    <!-- Generator: Sketch 3.1 (8751) - http://www.bohemiancoding.com/sketch -->
    <title>linkedin</title>
    <desc>Created with Sketch.</desc>
    <defs></defs>
    <g id="Page-1" stroke="none" stroke-width="1" fill="none" fill-rule="evenodd" sketch:type="MSPage">
        <g id="Artboard-3" sketch:type="MSArtboardGroup" transform="translate(-607.000000, -282.000000)" fill="#444B58">
            <path d="M607.833334,287.66664 L607.833334,298 L611.166676,298 L611.166676,287.66664 L607.833334,287.66664 Z M616.500024,291.999984 C616.500024,290.666647 617.351878,289.999979 618.35188,289.999979 C619.351883,289.999979 620.1667,290.666647 620.1667,292.333318 L620.1667,298 L623.500042,298 L623.500042,291.999984 C623.500042,288.999976 621.833371,287.333305 619.500031,287.333305 C618.166695,287.333305 617.166692,288.092567 616.500024,289.092569 L616.388912,287.66664 L613.111126,287.66664 C613.111126,288.018492 613.166682,289.999979 613.166682,289.999979 L613.166682,298 L616.500024,298 L616.500024,291.999984 Z M609.481487,285.999969 C610.722231,285.999969 611.50001,285.185152 611.50001,284.16663 C611.481492,283.129591 610.722231,282.333292 609.518524,282.333292 C608.296298,282.333292 607.5,283.129591 607.5,284.16663 C607.5,285.185152 608.27778,285.999969 609.462968,285.999969 L609.481487,285.999969 L609.481487,285.999969 Z" id="linkedin" sketch:type="MSShapeGroup"></path>
        </g>
    </g>
</svg>