<?xml version="1.0" encoding="UTF-8" standalone="no"?>
<svg width="51px" height="51px" viewBox="0 0 51 51" version="1.1" xmlns="http://www.w3.org/2000/svg" xmlns:xlink="http://www.w3.org/1999/xlink" xmlns:sketch="http://www.bohemiancoding.com/sketch/ns">
    <!-- Generator: Sketch 3.1 (8751) - http://www.bohemiancoding.com/sketch -->
    <title>logo</title>
    <desc>Created with Sketch.</desc>
    <defs></defs>
    <g id="Page-1" stroke="none" stroke-width="1" fill="none" fill-rule="evenodd" sketch:type="MSPage">
        <g id="Artboard-3" sketch:type="MSArtboardGroup" transform="translate(-575.000000, -95.000000)">
            <g id="logo" sketch:type="MSLayerGroup" transform="translate(575.000000, 95.000000)">
                <circle id="Oval-2" fill="#444B58" sketch:type="MSShapeGroup" cx="25.5" cy="25.5" r="25.3271484"></circle>
                <path d="M29.408637,20.1811037 L26.3158256,20.1811037 L28.1101983,21.9900779 L28.4301358,21.9900779 C29.8942984,21.9900779 31.1712017,22.1503067 32.2250769,22.4663933 C33.2749917,22.7814807 34.1522516,23.2891425 34.8324745,23.9752664 C35.5112123,24.6605161 36.0189042,25.5600702 36.3414408,26.6490764 C36.6642249,27.7407053 36.8278447,29.0731144 36.8278447,30.6092127 C36.8278447,32.1451861 36.6642249,33.4774703 36.3414408,34.5688494 C36.0192755,35.6573561 35.5114598,36.55716 34.8324745,37.243159 C34.1516327,37.9294078 33.2743728,38.4369446 32.2250769,38.7516574 C31.1708304,39.0676191 29.8940509,39.2278479 28.4301358,39.2278479 L24.3198366,39.2278479 L24.3198366,29.8772556 C24.2578293,29.8773805 22.3156789,29.8806275 22.3033022,29.8806275 C20.9385244,29.8806275 19.7580356,29.6193659 18.7945102,29.104211 C17.8281381,28.5881819 17.0268711,27.8959386 16.4127397,27.0467136 C15.7961329,26.1954903 15.3347298,25.2157594 15.0412785,24.1343712 C14.746837,23.0519839 14.5974503,21.9391244 14.5974503,20.8267645 C14.5974503,19.6956716 14.746837,18.5779416 15.0412785,17.5042963 C15.3347298,16.432899 15.7961329,15.4579137 16.4127397,14.6063158 C17.0274899,13.7565912 17.8287569,13.0644728 18.7945102,12.5489433 C19.7587782,12.0334137 20.9299845,11.7720272 22.2757022,11.7720272 C23.0126104,11.7720272 23.7274881,11.8833007 24.4005326,12.1027254 C25.0720919,12.3228995 25.695382,12.6471037 26.2531995,13.0662212 C26.8097793,13.485089 27.2885098,14.0118583 27.6763953,14.6319175 C28.0639095,15.2528509 28.3467169,15.9642017 28.5168964,16.7462381 L30.6042254,16.7953183 C30.4609033,15.6383741 30.1337874,14.6627643 29.6231251,13.8254034 C29.112339,12.989791 28.4678847,12.2756926 27.7078321,11.7028404 C26.9472844,11.1302379 26.0890846,10.6923874 25.1571197,10.401403 C24.2250311,10.1106683 23.2555649,9.96317785 22.2757022,9.96317785 C20.6627718,9.96317785 19.2258379,10.2631541 18.004506,10.8547393 C16.7835453,11.446824 15.7550423,12.2535878 14.9479582,13.2525512 C14.1408742,14.2512648 13.5272378,15.4158271 13.1242527,16.7141424 C12.7213914,18.0099599 12.517176,19.3935723 12.517176,20.8267645 C12.517176,22.2599566 12.7213914,23.6436939 13.1242527,24.9392617 C13.5272378,26.2378267 14.1409979,27.3975185 14.9482058,28.3862412 C15.7562799,29.3764626 16.7845355,30.178231 18.0046297,30.7689419 C19.2170504,31.3565307 20.6422264,31.6566319 22.2411712,31.660878 L22.2395622,41.0368222 L29.410246,41.0368222 C32.5393211,40.9596426 34.9306217,40.0592142 36.5178086,38.3606393 C38.1041292,36.6631882 38.9084903,34.0551931 38.9084903,30.6092127 C38.9084903,27.163482 38.1041292,24.5552371 36.5178086,22.8571617 C34.9302504,21.1590862 32.5388261,20.2586579 29.408637,20.1811037 Z" id="Imported-Layers-2" fill="#FFFFFF" sketch:type="MSShapeGroup"></path>
            </g>
        </g>
    </g>
</svg>