<?xml version="1.0" encoding="UTF-8" standalone="no"?>
<svg width="22px" height="29px" viewBox="0 0 22 29" version="1.1" xmlns="http://www.w3.org/2000/svg" xmlns:xlink="http://www.w3.org/1999/xlink" xmlns:sketch="http://www.bohemiancoding.com/sketch/ns">
    <!-- Generator: Sketch 3.4.4 (17249) - http://www.bohemiancoding.com/sketch -->
    <title>rocketship</title>
    <desc>Created with Sketch.</desc>
    <defs></defs>
    <g id="Page-1" stroke="none" stroke-width="1" fill="none" fill-rule="evenodd" sketch:type="MSPage">
        <g id="portfolio" sketch:type="MSArtboardGroup" transform="translate(-584.000000, -456.000000)" fill="#303234">
            <g id="rocketship" sketch:type="MSLayerGroup" transform="translate(584.000000, 456.000000)">
                <path d="M21.9284127,17.7784796 C21.3358095,17.7497334 21.263873,17.7686638 21.2237143,17.7409693 C18.4255238,15.8202316 18.425873,15.8202316 15.4848571,17.8818958 C14.056254,18.8831053 12.6726984,19.959686 11.184381,20.8623871 C9.69606349,21.7647377 9.30774603,22.8069631 10.260381,24.3164897 C10.4576825,24.6284913 10.495746,25.0411045 10.6375238,25.5077046 C10.2855238,25.5760645 10.0113968,25.725054 9.86787302,25.6433727 C7.39793651,24.2348084 4.92974603,22.8213362 2.50520635,21.3356479 C2.21711111,21.1589639 2.12701587,20.5665115 2.06066667,20.147588 C2.01946032,19.8864182 2.18149206,19.5856347 2.27542857,19.3104423 C3.23190476,16.5139969 3.1788254,13.943665 1.62415873,11.2064648 C0.015015873,8.37356082 -0.0977777778,5.12138282 0.469333333,1.84852157 C0.752190476,0.215947143 1.59622222,0.0438204431 2.89980952,0.283255344 C6.64190476,0.969658764 9.8008254,2.76419355 12.2368889,5.64687757 C13.3637778,6.98007073 14.6069524,7.48803731 16.2555556,7.61003342 C20.1659683,7.89889778 20.185873,7.94271823 20.9226984,11.7361663 C21.3022857,13.6912592 21.580254,15.6663342 21.9284127,17.7784796 L21.9284127,17.7784796 Z M7.57777778,12.7808457 C9.13942857,12.8229133 10.5767619,11.4627268 10.6706984,9.85293898 C10.7733651,8.08785154 9.25815873,6.4447602 7.4908254,6.40409483 C5.8247619,6.3658834 4.37939683,7.79653323 4.38044444,9.48309444 C4.38149206,11.149323 5.91974603,12.7359736 7.57777778,12.7808457 L7.57777778,12.7808457 Z" id="Fill-1" sketch:type="MSShapeGroup"></path>
                <path d="M17.2078413,25.5343475 C17.1928254,25.5343475 16.7193016,25.7005146 16.7193016,27.1059238 C15.0326349,26.7735896 13.6990159,25.3920187 13.5593333,23.6749584 C13.4304762,22.0918134 14.0635873,20.8441578 15.5386349,20.1255025 C17.0238095,19.4008877 18.7307302,19.7644221 19.9225714,21.1568605 C21.6476508,23.170848 20.7184127,28.5488434 20.461746,28.8215818 C20.2166032,28.5530501 18.9940317,25.6388154 17.2078413,25.5343475" id="Fill-2" sketch:type="MSShapeGroup"></path>
            </g>
        </g>
    </g>
</svg>