<?xml version="1.0" encoding="UTF-8"?>
<svg width="506px" height="71px" viewBox="0 0 506 71" version="1.1" xmlns="http://www.w3.org/2000/svg" xmlns:xlink="http://www.w3.org/1999/xlink">
    <!-- Generator: Sketch 43.2 (39069) - http://www.bohemiancoding.com/sketch -->
    <title>sitelogo</title>
    <desc>Created with Sketch.</desc>
    <defs></defs>
    <g id="Page-1" stroke="none" stroke-width="1" fill="none" fill-rule="evenodd">
        <g id="Artboard" transform="translate(-59.000000, -13.000000)">
            <g id="sitelogo" transform="translate(59.000000, 13.000000)">
                <g id="c-horse-copy-2">
                    <path d="M104.482049,22.0569629 C103.828773,20.0317694 98.1794085,8.45756276 97.4814566,7.23007141 C97.0313283,6.4290246 96.2524544,5.85541488 95.3462971,5.62965012 C94.4747001,5.41057469 73.7536213,0.268155188 54.8457,0.238889386 C49.1457596,0.23220006 40.5048117,0.65529994 31.7070776,2.72731872 C21.8371276,5.04684258 14.1495415,8.88484347 8.85083916,14.1317837 C3.22001958,19.7106817 0.364991748,26.7762825 0.364991748,35.1396126 C0.364991748,44.0824055 4.7078035,52.8771971 12.2824359,59.2563058 C21.2158829,66.78347 34.2443182,70.7619468 49.9608797,70.7619468 C68.1539903,70.7619468 92.1911836,66.4389697 95.936353,64.7440617 C96.6562213,64.4204656 97.2437484,63.852709 97.5986249,63.1453128 C97.6011537,63.1436404 97.6121119,63.1386234 97.6146407,63.1319341 C97.6146407,63.1319341 101.837755,54.8472036 102.373863,53.8396239 C102.909128,52.8337165 103.945941,50.6847704 104.483735,48.9890262 C105.020686,47.2891012 105.206132,24.292034 104.482049,22.0569629 Z" id="Shape" fill="#DAAA00"></path>
                    <g id="Group" transform="translate(22.759301, 10.033989)">
                        <path d="M34.7778973,23.6540395 C34.8651453,23.7454289 34.9569853,23.8288217 35.0442333,23.916784 C34.9569853,23.8288217 34.8651453,23.7454289 34.7778973,23.6540395 Z" id="Shape" fill="#C2C2C2"></path>
                        <path d="M41.278628,4.55350477 L48.5582324,0.243070215 C41.5846141,1.4404596 32.8770743,4.46570736 32.8770743,4.46570736 C15.5049843,4.71572093 6.76962755,11.0488405 3.29672685,14.4879903 C-0.426526154,19.8879489 0.0615344056,25.1591379 0.0615344056,25.1591379 C0.385222238,39.4960362 8.74462909,45.4236154 15.6221526,47.8802704 C17.559222,48.473112 19.3411909,48.9137713 20.8180166,49.2306781 C22.567111,49.5250085 23.8677629,49.5935741 24.3743681,49.6077889 C21.6154351,47.8501685 20.7741839,45.6242952 21.0928141,43.2562737 C21.0708978,43.2989182 21.0565678,43.3198223 21.0565678,43.3198223 C21.0742695,43.2562737 21.0928141,43.1927251 21.1088299,43.1258318 C21.2251552,42.3766273 21.4519053,41.6106995 21.7713785,40.8380823 C22.2796695,39.2961926 22.8688825,37.8997958 23.4884413,36.6472194 C23.4058334,36.8069271 23.3240685,36.9741603 23.2414607,37.1439019 L23.2414607,37.1472466 C23.9326691,33.482332 28.3184706,27.2997223 28.3184706,27.2997223 L28.4347959,17.4580511 C28.8941966,14.2538639 35.223811,11.0137215 35.223811,11.0137215 L34.4963564,11.9652782 C34.4946705,11.9677867 34.4896129,11.9702952 34.4828694,11.974476 C34.4963564,11.9652782 34.5022569,11.9585888 34.5022569,11.9585888 C31.3884474,15.7363858 32.0509959,18.0199545 32.0509959,18.0199545 C32.4775221,20.5560453 33.5059053,22.3638357 34.7770544,23.6523672 C36.5168765,24.6791787 40.353926,26.3331146 45.5118579,25.0128089 C45.5118579,25.0128089 50.935315,23.8689341 58.8816827,23.1339444 L58.3927792,23.2911436 C54.9291508,25.0086281 52.0370337,26.1525028 52.0370337,26.1525028 L53.4540109,26.6751064 L57.5102241,27.5296679 C60.1671617,28.3315508 59.935354,29.6476758 59.935354,29.6476758 L60.0516793,31.6502928 C61.5192327,32.0131887 62.8738326,33.134487 63.3711655,33.5776549 L68.5265685,32.2682193 L69.5659099,30.551571 L72.5819387,30.672815 L72.5372631,30.3525635 C72.0753336,29.0146983 71.4220573,24.5035839 70.6212671,23.6247737 C66.592028,19.1939313 60.8870299,15.1109338 60.8870299,15.1109338 C59.760866,14.5047136 58.8007607,13.6810903 58.0589761,12.917671 C58.8471222,15.1577591 59.1387785,17.0516746 59.1387785,17.0516746 L58.971034,16.8325991 C58.971034,16.8325991 58.4737011,15.4069365 57.3028615,12.8842244 L57.2767305,12.0430416 C56.6833028,11.3348092 56.3570862,10.8163864 56.3570862,10.8163864 C53.5888808,7.95502713 46.2039092,4.57775358 46.2039092,4.57775358 L40.5368434,4.93479636 L41.278628,4.55350477 Z M52.154202,10.9117093 L45.1173634,9.35894946 L43.4736361,9.0161215 L51.9805569,10.0538032 L57.149447,13.3533134 L57.3214062,14.4921711 L52.154202,10.9117093 Z" id="Shape" fill="#CCCCCC"></path>
                    </g>
                    <path d="M64.0446722,14.6033812 L72.5802529,9.52701878 C72.5802529,9.52701878 64.0539445,10.5145306 57.7268589,12.6743468 L56.8316597,12.9812196 C48.3340112,13.0614915 41.7371857,14.7254614 41.7371857,14.7254614 C21.3954285,19.9414635 22.821678,35.1939633 22.821678,35.1939633 C23.3746448,59.6735525 47.3688483,59.6476313 47.3688483,59.6476313 C67.2756499,61.8801939 90.3013187,54.4182506 90.3013187,54.4182506 L93.1748912,50.9590328 C98.4794941,45.013058 100.712434,45.4487004 100.712434,45.4487004 C102.689965,46.0465589 100.935813,48.1712561 100.31794,49.5082852 C99.7025958,50.8461504 94.4999883,61.6226549 94.4999883,61.6226549 C91.6458034,62.9128587 68.5763018,67.3269778 49.9608797,67.3269778 C16.9784383,67.3269778 3.82693427,49.5559466 3.82693427,35.1396126 C3.82693427,7.93495915 37.2595041,3.6487734 54.8397994,3.67051371 C73.5378294,3.69894335 94.4999883,8.95675373 94.4999883,8.95675373 L100.690518,22.3721974 C100.690518,22.3721974 103.12492,26.3540188 99.392395,25.3138286 L90.3013187,16.2364129 L79.7072857,14.0297715 C76.1888664,14.2095471 78.5870224,16.4329119 78.5870224,16.4329119 C81.4698671,18.1529049 82.6112039,20.0911371 82.6112039,20.0911371 L85.2436964,22.5160179 C95.1423063,29.4260918 96.726185,33.0968596 96.726185,33.0968596 L97.6500441,37.5594763 L98.1676074,42.7955464 L93.9579797,42.8248122 L92.8891355,44.4319228 L86.7449673,45.9738125 L77.6589487,43.5046149 C81.1183624,41.6165526 78.9638152,39.9785039 78.9638152,39.9785039 L72.5229331,37.6104824 L63.8701842,40.3581231 L57.5363551,39.3371647 C49.8757431,40.9944453 43.8158685,53.3546477 43.8158685,53.3546477 C46.4315022,42.7261446 52.9634215,37.9541465 52.9634215,37.9541465 L52.4171983,27.6601097 C52.9634215,24.9208306 57.2624006,21.9925781 57.2624006,21.9925781 C54.148591,25.7703751 54.8111396,28.0539438 54.8111396,28.0539438 C56.373102,37.3270222 65.974998,36.8754927 65.974998,36.8754927 C76.0135355,33.956438 81.1537657,33.325969 81.1537657,33.325969 C77.6901373,35.0434535 74.7980203,36.1873283 74.7980203,36.1873283 L81.7564657,38.7560295 L82.2428404,42.1951793 L86.0849476,43.6275313 L91.2875551,42.3030447 L92.3268965,40.5863964 L95.3429253,40.7076404 L94.4165375,34.2424067 C88.8329224,27.4218025 83.3420303,23.9408444 83.3420303,23.9408444 L80.9303874,21.986725 C80.9303874,21.986725 78.8913227,19.2909265 78.3813457,18.9330476 C74.9320473,16.5014775 69.0643624,13.573225 69.0643624,13.573225 L68.5088669,13.7412943 L64.0446722,14.6033812 Z" id="Shape" fill="#004987"></path>
                    <g id="Group" transform="translate(67.802098, 19.231813)" fill="#004987">
                        <path d="M11.9346906,2.99489177 L12.278609,5.29434764 L7.11140476,1.71388581 L0.0745661538,0.161125969 L6.94113147,3.11697197 C6.94113147,3.11697197 10.0262811,7.95251863 12.2086452,6.47919454 L13.9282368,7.63728414 C13.9290797,7.63644797 13.3432385,5.94739311 11.9346906,2.99489177 Z" id="Shape"></path>
                        <polygon id="Shape" points="25.403139 15.6979222 25.9813938 18.7298593 22.576771 12.7638165"></polygon>
                    </g>
                    <path d="M45.349171,40.0127867 C45.349171,40.0127867 48.8111136,36.1212712 49.0412354,31.313318 C49.0412354,31.313318 41.6756513,34.9648539 34.1617103,41.3732284 C32.3097776,42.8808353 32.3696262,41.9234255 32.5980621,41.154153 C37.621967,34.380374 47.6208864,22.6824149 58.3025849,20.276766 C58.3025849,20.276766 56.6091243,29.8215982 69.4487417,30.4428694 L80.4456986,30.1176009 L74.1068119,26.1341072 C74.1068119,26.1341072 68.6968418,21.5753314 59.627682,18.4346928 C58.8732533,18.0007227 59.1708101,17.6578948 59.2846066,17.558391 C64.6347281,17.4848084 73.194754,18.2666234 76.9685832,21.1806612 C76.9685832,21.1806612 75.8306182,19.0325513 68.9994562,15.8852233 C67.783941,15.3450602 65.7271745,15.3316816 63.7370001,15.4980786 L63.7370001,15.4955701 C61.1601415,15.5549378 62.0620842,14.9537346 62.1598649,14.6351555 L65.3925285,12.3666377 L54.8381136,15.4428916 C46.7358025,16.5533198 33.6129583,19.9573506 23.3931894,30.2923596 C22.6303313,33.1428487 22.821678,35.1914548 22.821678,35.1914548 C22.969192,41.6759204 24.7579045,46.4429015 27.3170614,49.946436 C30.1990632,50.5618541 38.1412162,51.0108751 45.349171,40.0127867 Z" id="Shape" fill="#FFFFFF" fill-rule="nonzero"></path>
                    <path d="M89.6025239,38.3045 L92.1127905,38.3045 C91.435912,35.9465125 89.9017666,31.6277163 85.3347336,28.7103339 L81.7320206,26.8674246 L88.6483192,35.5576954 L84.4960112,33.8402109 L75.9494723,35.7148946 C75.5035586,35.9013596 75.1722843,36.0384908 74.9834664,36.1137457 L78.4639536,36.1087287 C86.2231892,38.2459684 84.6704992,41.3673752 84.6704992,41.3673752 C84.6704992,41.3673752 87.7151878,41.9142276 88.8843415,41.5663827 C90.0357936,41.2218824 92.2417599,39.9458934 91.3052568,39.6214611 L85.5353526,39.505234 C85.5353526,39.505234 88.5185069,38.0519779 89.6025239,38.3045 Z" id="Shape" fill="#FFFFFF"></path>
                    <g id="Group" transform="translate(16.015804, 8.272509)" fill="#FFFFFF">
                        <path d="M19.8452673,51.8233073 C19.8452673,51.8233073 2.77832056,45.1891681 2.77832056,26.7609106 C2.77832056,11.9114427 19.7542301,4.61589629 19.7542301,4.61589629 C19.7542301,4.61589629 0.0480474126,9.5258617 0.0480474126,26.6513729 C0.0480474126,46.813002 19.8452673,51.8233073 19.8452673,51.8233073 Z" id="Shape" fill-rule="nonzero"></path>
                        <path d="M31.5848517,55.1529194 C31.5848517,55.1529194 63.0255613,54.5650949 76.1054157,48.6207924 L82.3650663,41.1847702 L77.1337989,49.6409146 C77.1337989,49.6417508 64.9196408,56.4958016 31.5848517,55.1529194 Z" id="Shape"></path>
                        <path d="M47.6562898,0.178364536 C33.3558625,-0.279854307 30.2369954,0.797963373 30.3482631,0.920043576 C30.3482631,0.920043576 35.1294021,0.534571155 43.5039818,1.32892864 L47.6562898,0.178364536 Z" id="Shape"></path>
                        <path d="M59.641169,2.46695025 C65.3006484,2.79723573 72.6738189,4.02472709 76.1054157,5.90610008 L82.6971835,13.6732439 L76.7224456,4.27055983 C76.7224456,4.27055983 72.4150372,2.37580819 61.6262857,1.1123617 L59.641169,2.46695025 Z" id="Shape"></path>
                    </g>
                    <path d="M78.243947,24.4065887 C78.1967425,24.4943861 78.1663968,24.5989068 78.1663968,24.7067722 C78.1663968,25.0705043 78.4647965,25.366507 78.8281024,25.366507 C79.1357744,25.366507 79.3903414,25.1583017 79.4687345,24.87735 C79.1610625,24.9400625 78.632541,24.6540938 78.243947,24.4065887 Z" id="Shape" fill="#FFFFFF"></path>
                </g>
                <g id="ucdavis-copy" transform="translate(120.000000, 23.000000)" fill="#004987">
                    <path d="M128.632562,22.507069 L130.980314,16.2174138 L131.384776,16.5751724 C132.823337,17.7656897 134.775973,18.7786207 136.617297,18.8191379 C138.265736,18.857069 139.069562,18.4122414 138.850337,16.9975862 C138.688892,15.9415517 137.512042,15.7553448 136.777892,15.6087931 L135.16684,15.282931 C132.033955,14.6881034 129.396453,12.7251724 129.396453,9.00965517 C129.396453,3.38724138 134.170979,0.237241379 138.973545,0.237241379 C141.495487,0.237241379 143.811799,0.888965517 145.977713,2.31827586 L143.943505,7.89327586 C142.826135,7.07689655 141.137759,5.92862069 138.999886,5.85017241 C138.297175,5.82258621 136.684424,6.19758621 137.201048,7.85534483 C137.424522,8.56137931 138.422083,8.85793103 139.034724,9.00965517 L140.854805,9.45448276 C144.249401,10.257931 146.707614,12.2182759 146.707614,16.232931 C146.707614,21.882069 141.903349,24.6786207 137.133921,24.6786207 C134.347718,24.6786207 131.124765,23.8734483 128.632562,22.507069 Z" id="Fill-1"></path>
                    <polygon id="Fill-3" points="118.729266 24.3231897 126.906035 24.3231897 126.906035 0.623189655 118.729266 0.623189655"></polygon>
                    <polygon id="Fill-5" points="109.510751 0.622758621 117.884653 0.622758621 109.330613 24.3227586 102.536324 24.3227586 94.0103237 0.622758621 102.355335 0.622758621 105.934318 14.9244828"></polygon>
                    <path d="M86.3619902,7.46293103 L86.3619902,7.46293103 C86.5115393,8.47241379 87.9738919,15.725 87.9738919,15.725 L84.760285,15.725 L86.3619902,7.46293103 Z M74.1754353,24.3232759 L82.6708457,24.3232759 L83.3174757,21.3465517 L89.3776145,21.3465517 L90.1831405,24.3232759 L98.6836491,24.3232759 L90.7278052,0.622413793 L81.8151867,0.622413793 L74.1754353,24.3232759 Z" id="Fill-6"></path>
                    <path d="M53.1709197,0.622758621 L61.5448214,0.622758621 C69.0188792,0.622758621 74.728937,4.1037931 74.728937,12.8158621 C74.728937,19.8331034 70.0759197,24.3227586 63.5390931,24.3227586 L53.1709197,24.3098276 L53.1709197,0.622758621 Z M61.4012202,17.5184483 L61.9501335,17.5184483 C64.6445671,17.5184483 66.6422376,15.877069 66.6422376,12.7839655 C66.6422376,9.45465517 64.8722896,7.59689655 61.9127462,7.59689655 L61.4012202,7.59689655 L61.4012202,17.5184483 Z" id="Fill-7"></path>
                    <path d="M48.2809179,1.36612069 L48.7176694,5.25577586 C48.8196347,6.17905172 49.3396578,8.3937069 48.6964266,8.09715517 C48.2962127,7.91439655 47.9648254,6.91008621 47.6376867,6.01784483 C47.4702936,5.56439655 46.6741145,3.42387931 46.4659353,3.26698276 C45.4590277,2.50318966 42.9489815,1.64198276 41.251259,1.63422414 C36.100311,1.61439655 32.6938197,5.4687069 32.6938197,12.3092241 C32.6938197,17.2152586 35.0092821,23.0997414 40.8986289,23.0997414 C43.0076116,23.0997414 47.0496867,22.4264655 48.148363,19.3799138 C48.6462936,18.0014655 49.1017387,16.7756034 49.4305769,17.1488793 C49.6761434,17.419569 49.3575017,18.5238793 49.2105017,19.1187069 C48.5154382,21.9411207 48.4789006,22.7980172 48.2596751,22.9066379 C45.5992301,24.2643966 42.185941,24.7092241 39.1992069,24.7092241 C29.7036867,24.7092241 26.424652,19.0885345 26.424652,13.4687069 C26.424652,3.71698276 32.3292936,-0.391637931 41.4806809,0.0290517241 C43.7961434,0.116982759 46.1133052,0.535086207 48.2809179,1.36612069" id="Fill-8"></path>
                    <path d="M20.2421549,1.79801724 L18.7211723,1.26008621 C18.2121954,0.793706897 18.8341838,0.663534483 18.8341838,0.663534483 C18.8341838,0.663534483 21.0315364,1.07732759 26.5062243,0.606637931 C26.5062243,0.606637931 26.9812127,0.702327586 26.6532243,1.0937069 L24.8569353,1.87387931 C23.6868832,2.39198276 23.6868832,2.09543103 23.6868832,3.3962931 L23.6766867,15.4747414 C23.6766867,24.920431 14.2058081,24.7092241 12.362785,24.7092241 C11.4816347,24.7092241 2.79588902,24.7092241 2.79588902,17.1256034 L2.79588902,4.34025862 C2.79588902,2.11094828 3.03125896,2.16956897 2.30135723,1.90922414 L0.104854335,1.07215517 C0.104854335,1.07215517 -0.269018497,0.536810345 0.395455491,0.571293103 C2.19174451,0.663534483 4.79016069,1.05405172 10.9046809,0.606637931 C10.9046809,0.606637931 11.4366,0.737672414 11.0865191,1.12818966 L9.25794104,1.64974138 C7.86696416,2.2825 8.05050173,1.79801724 8.01311445,3.24801724 L8.05814913,15.8557759 C8.05814913,18.9462931 9.6258659,22.7738793 14.5575884,22.7738793 C21.2694555,22.7738793 21.3323341,16.8825 21.3323341,15.5738793 L21.3450798,3.08422414 C21.4164555,1.90922414 21.2694555,2.2437069 20.2421549,1.79801724" id="Fill-9"></path>
                </g>
                <path d="M302.010121,47.5484805 L302.010121,24.382055 L295.091692,24.382055 L289.487764,38.3791606 L283.883837,24.382055 L277,24.382055 L277,47.5484805 L281.912085,47.5484805 L281.912085,31.3285094 L288.415408,47.5484805 L290.560121,47.5484805 L297.063444,31.3285094 L297.063444,47.5484805 L302.010121,47.5484805 Z M322.903776,47.5484805 L322.903776,43.2069465 L311.488369,43.2069465 L311.488369,37.9623734 L322.661631,37.9623734 L322.661631,33.6208394 L311.488369,33.6208394 L311.488369,28.723589 L322.903776,28.723589 L322.903776,24.382055 L306.576284,24.382055 L306.576284,47.5484805 L322.903776,47.5484805 Z M347.395015,47.5484805 L347.395015,24.382055 L342.482931,24.382055 L342.482931,38.934877 L331.793958,24.382055 L326.743505,24.382055 L326.743505,47.5484805 L331.655589,47.5484805 L331.655589,32.4399421 L342.655891,47.5484805 L347.395015,47.5484805 Z M357.115408,27.577424 C357.115408,25.3198263 355.627946,24.0347323 354.002115,24.0347323 C352.549245,24.0347323 351.303927,25.2850941 351.303927,26.813314 C351.303927,28.2720695 352.341692,29.3140376 353.656193,29.3140376 C353.898338,29.3140376 354.209668,29.2445731 354.313444,29.1751085 C354.036707,30.4254703 352.756798,31.8842258 351.649849,32.4746744 L353.552417,34.0376266 C355.662538,32.5094067 357.115408,30.1823444 357.115408,27.577424 Z M368.980514,47.9652677 C375.2071,47.9652677 378.216616,44.7698987 378.216616,40.5325615 C378.216616,31.8842258 364.967825,34.3502171 364.967825,30.6685962 C364.967825,29.2793054 366.143958,28.341534 368.254079,28.341534 C370.606344,28.341534 373.096979,29.1403763 374.964955,30.8769899 L377.697734,27.2648336 C375.414653,25.146165 372.370544,24.0347323 368.703776,24.0347323 C363.27281,24.0347323 359.951964,27.2301013 359.951964,31.0853835 C359.951964,39.8031838 373.235347,36.9898698 373.235347,41.0882779 C373.235347,42.4081042 371.920846,43.658466 369.222659,43.658466 C366.040181,43.658466 363.514955,42.2344428 361.889124,40.5325615 L359.225529,44.2836469 C361.370242,46.47178 364.552719,47.9652677 368.980514,47.9652677 Z M409.07281,47.5484805 L403.43429,47.5484805 L398.902719,39.316932 L395.305136,39.316932 L395.305136,47.5484805 L390.393051,47.5484805 L390.393051,24.382055 L401.185801,24.382055 C405.994109,24.382055 408.934441,27.5426918 408.934441,31.8494935 C408.934441,35.9479016 406.374622,38.1360347 403.883988,38.7264834 L409.07281,47.5484805 Z M400.459366,34.975398 C402.431118,34.975398 403.91858,33.7945007 403.91858,31.8494935 C403.91858,29.9044863 402.431118,28.723589 400.459366,28.723589 L395.305136,28.723589 L395.305136,34.975398 L400.459366,34.975398 Z M423.048036,47.9652677 C430.070242,47.9652677 433.460272,44.040521 433.460272,38.2749638 L433.460272,24.382055 L428.444411,24.382055 L428.444411,38.1360347 C428.444411,41.366136 426.611027,43.5890014 423.048036,43.5890014 C419.485045,43.5890014 417.617069,41.366136 417.617069,38.1360347 L417.617069,24.382055 L412.635801,24.382055 L412.635801,38.3096961 C412.635801,44.0057887 416.025831,47.9652677 423.048036,47.9652677 Z M449.165106,48 C453.350755,48 456.637009,46.2633864 458.989275,43.6237337 L458.989275,34.7322721 L447.988973,34.7322721 L447.988973,39.0390738 L454.07719,39.0390738 L454.07719,41.8176556 C453.143202,42.6859624 451.206042,43.5890014 449.165106,43.5890014 C444.979456,43.5890014 441.935347,40.3589001 441.935347,35.9826339 C441.935347,31.6063676 444.979456,28.3762663 449.165106,28.3762663 C451.621148,28.3762663 453.5929,29.7655572 454.630665,31.397974 L458.712538,29.1751085 C456.982931,26.431259 453.973414,24 449.165106,24 C442.419637,24 436.884894,28.6541245 436.884894,35.9826339 C436.884894,43.276411 442.419637,48 449.165106,48 Z M475.420544,47.5484805 L462.898187,47.5484805 L462.898187,24.382055 L475.04003,24.382055 C479.433233,24.382055 481.681722,27.195369 481.681722,30.2865412 C481.681722,33.2040521 479.882931,35.1490593 477.703625,35.6005789 C480.159668,35.9826339 482.13142,38.3791606 482.13142,41.2966715 C482.13142,44.7698987 479.813746,47.5484805 475.420544,47.5484805 Z M473.967674,33.6555716 C475.628097,33.6555716 476.665861,32.6136035 476.665861,31.154848 C476.665861,29.6960926 475.628097,28.6193922 473.967674,28.6193922 L467.810272,28.6193922 L467.810272,33.6555716 L473.967674,33.6555716 Z M474.140634,43.276411 C476.00861,43.276411 477.115559,42.2691751 477.115559,40.602026 C477.115559,39.1432706 476.077795,37.8929088 474.140634,37.8929088 L467.810272,37.8929088 L467.810272,43.276411 L474.140634,43.276411 Z M497.179003,47.5484805 L497.179003,38.0665702 L506,24.382055 L500.396073,24.382055 L494.722961,33.6903039 L488.980665,24.382055 L483.376737,24.382055 L492.266918,38.0665702 L492.266918,47.5484805 L497.179003,47.5484805 Z" id="MEN’S-RUGBY-Copy" fill="#004B85"></path>
            </g>
        </g>
    </g>
</svg>