<?xml version="1.0" encoding="UTF-8" standalone="no"?>
<svg width="16px" height="14px" viewBox="0 0 16 14" version="1.1" xmlns="http://www.w3.org/2000/svg" xmlns:xlink="http://www.w3.org/1999/xlink" xmlns:sketch="http://www.bohemiancoding.com/sketch/ns">
    <!-- Generator: Sketch 3.1 (8751) - http://www.bohemiancoding.com/sketch -->
    <title>twitter</title>
    <desc>Created with Sketch.</desc>
    <defs></defs>
    <g id="Page-1" stroke="none" stroke-width="1" fill="none" fill-rule="evenodd" sketch:type="MSPage">
        <g id="Artboard-3" sketch:type="MSArtboardGroup" transform="translate(-574.000000, -284.000000)" fill="#444B58">
            <path d="M590.000042,285.870336 C589.407448,286.129596 588.777817,286.314782 588.111148,286.388856 C588.796335,285.981447 589.314855,285.333297 589.555596,284.574036 C588.925965,284.944408 588.22226,285.222186 587.481517,285.370335 C586.870404,284.740703 586.01855,284.333295 585.074103,284.333295 C583.259284,284.333295 581.796317,285.796262 581.796317,287.611081 C581.796317,287.870341 581.814835,288.129601 581.870391,288.370342 C579.148162,288.222194 576.740748,286.98145 575.111114,284.999963 C574.833336,285.481446 574.666668,285.981447 574.666668,286.59256 C574.666668,287.722193 575.240744,288.722195 576.129635,289.314789 C575.592597,289.296271 575.092595,289.148122 574.64815,288.907381 L574.64815,288.944418 C574.64815,290.537015 575.777782,291.870352 577.277786,292.166649 C577.000008,292.240723 576.703711,292.27776 576.407414,292.27776 C576.203709,292.27776 576.000005,292.259242 575.796301,292.222204 C576.203709,293.518504 577.425935,294.48147 578.851865,294.499988 C577.740751,295.388879 576.314821,296.055548 574.77778,296.055548 C574.51852,296.055548 574.25926,296.037029 574,295.999992 C575.444448,296.92592 577.185194,297.333329 579.03705,297.333329 C585.074103,297.333329 588.370408,292.333316 588.370408,287.999971 L588.370408,287.574044 C589.000039,287.11108 589.555596,286.537004 590.000042,285.870336 L590.000042,285.870336 Z" id="twitter" sketch:type="MSShapeGroup"></path>
        </g>
    </g>
</svg>