<?xml version="1.0" encoding="UTF-8" standalone="no"?>
<svg width="128px" height="54px" viewBox="0 0 128 54" version="1.1" xmlns="http://www.w3.org/2000/svg" xmlns:xlink="http://www.w3.org/1999/xlink" xmlns:sketch="http://www.bohemiancoding.com/sketch/ns">
    <!-- Generator: Sketch 3.2.2 (9983) - http://www.bohemiancoding.com/sketch -->
    <title>Bushes C</title>
    <desc>Created with Sketch.</desc>
    <defs></defs>
    <g id="Page-1" stroke="none" stroke-width="1" fill="none" fill-rule="evenodd" sketch:type="MSPage">
        <g id="Imported-Layers" sketch:type="MSLayerGroup" transform="translate(-384.000000, -118.000000)">
            <g id="Bushes-C" transform="translate(384.000000, 118.000000)" sketch:type="MSShapeGroup">
                <path d="M126.928,35.749 C126.996,35.292 127.033,34.827 127.033,34.351 C127.033,29.2 122.856,25.022 117.705,25.022 C117.488,25.022 117.275,25.034 117.063,25.048 C115.352,19.76 110.412,15.926 104.568,15.871 C103.572,10.749 99.065,6.882 93.65,6.882 C92.881,6.882 92.133,6.96 91.406,7.108 C90.201,3.352 86.682,0.634 82.525,0.634 C78.369,0.634 74.85,3.352 73.645,7.108 C72.918,6.96 72.168,6.882 71.4,6.882 C65.973,6.882 61.455,10.77 60.475,15.913 C60.127,15.886 59.775,15.868 59.42,15.868 C53.519,15.868 48.521,19.722 46.799,25.048 C46.586,25.034 46.372,25.022 46.154,25.022 C41.003,25.022 36.826,29.2 36.826,34.351 C36.826,34.827 36.863,35.292 36.932,35.749 L126.928,35.749 L126.928,35.749 Z M82.449,19.289 L82.525,19.291 L82.602,19.289 L82.602,19.292 L82.525,19.291 L82.449,19.292 L82.449,19.289 L82.449,19.289 Z" id="Fill-6" fill="#408740"></path>
                <path d="M90.666,53.307 C90.734,52.85 90.772,52.385 90.772,51.908 C90.772,46.758 86.596,42.58 81.443,42.58 C81.227,42.58 81.014,42.591 80.801,42.605 C79.09,37.317 74.15,33.483 68.307,33.428 C67.311,28.307 62.803,24.44 57.389,24.44 C56.621,24.44 55.871,24.518 55.144,24.665 C53.94,20.91 50.42,18.191 46.264,18.191 C42.107,18.191 38.588,20.91 37.382,24.665 C36.657,24.518 35.907,24.44 35.139,24.44 C29.711,24.44 25.192,28.328 24.213,33.471 C23.865,33.444 23.514,33.426 23.157,33.426 C17.258,33.426 12.26,37.279 10.537,42.605 C10.324,42.591 10.111,42.58 9.893,42.58 C4.742,42.58 0.565,46.758 0.565,51.908 C0.565,52.385 0.601,52.85 0.669,53.307 L90.666,53.307 L90.666,53.307 Z M46.188,36.846 L46.264,36.849 L46.34,36.846 L46.34,36.85 L46.264,36.849 L46.188,36.85 L46.188,36.846 L46.188,36.846 Z" id="Fill-7" fill="#39AB47"></path>
            </g>
        </g>
    </g>
</svg>