<?xml version="1.0" encoding="UTF-8" standalone="no"?>
<svg width="177px" height="59px" viewBox="0 0 177 59" version="1.1" xmlns="http://www.w3.org/2000/svg" xmlns:xlink="http://www.w3.org/1999/xlink" xmlns:sketch="http://www.bohemiancoding.com/sketch/ns">
    <!-- Generator: Sketch 3.2.2 (9983) - http://www.bohemiancoding.com/sketch -->
    <title>Bush L</title>
    <desc>Created with Sketch.</desc>
    <defs></defs>
    <g id="Page-1" stroke="none" stroke-width="1" fill="none" fill-rule="evenodd" sketch:type="MSPage">
        <g id="Imported-Layers" sketch:type="MSLayerGroup" transform="translate(-125.000000, -195.000000)">
            <g id="Bush-L" transform="translate(125.000000, 195.000000)" sketch:type="MSShapeGroup">
                <path d="M111.578,44.058 C111.662,43.495 111.707,42.923 111.707,42.337 C111.707,35.999 106.568,30.861 100.23,30.861 C99.963,30.861 99.701,30.875 99.439,30.893 C97.335,24.387 91.258,19.67 84.068,19.602 C82.842,13.301 77.296,8.543 70.636,8.543 C69.691,8.543 68.769,8.639 67.877,8.82 C66.394,4.201 62.063,0.855 56.951,0.855 C51.836,0.855 47.506,4.201 46.023,8.82 C45.131,8.639 44.208,8.543 43.263,8.543 C36.585,8.543 31.027,13.326 29.822,19.654 C29.393,19.621 28.961,19.598 28.523,19.598 C21.265,19.598 15.117,24.34 12.997,30.893 C12.735,30.875 12.472,30.861 12.205,30.861 C5.867,30.861 0.728,35.999 0.728,42.337 C0.728,42.923 0.773,43.495 0.857,44.058 L111.578,44.058 L111.578,44.058 Z M56.857,23.807 L56.951,23.809 L57.043,23.807 L57.043,23.81 L56.951,23.809 L56.856,23.81 L56.857,23.807 L56.857,23.807 Z" id="Fill-15" fill="#408740"></path>
                <path d="M176.644,58.099 C176.727,57.537 176.773,56.964 176.773,56.379 C176.773,50.041 171.634,44.902 165.296,44.902 C165.029,44.902 164.767,44.916 164.505,44.934 C162.4,38.428 156.324,33.711 149.134,33.643 C147.908,27.342 142.362,22.585 135.702,22.585 C134.757,22.585 133.835,22.681 132.942,22.862 C131.46,18.242 127.129,14.897 122.017,14.897 C116.902,14.897 112.572,18.242 111.089,22.862 C110.197,22.681 109.274,22.585 108.329,22.585 C101.651,22.585 96.093,27.368 94.888,33.695 C94.459,33.662 94.027,33.64 93.589,33.64 C86.331,33.64 80.183,38.381 78.062,44.934 C77.801,44.916 77.538,44.902 77.271,44.902 C70.933,44.902 65.794,50.041 65.794,56.379 C65.794,56.964 65.839,57.537 65.923,58.099 L176.644,58.099 L176.644,58.099 Z M121.923,37.848 L122.017,37.851 L122.109,37.848 L122.109,37.852 L122.017,37.851 L121.922,37.852 L121.923,37.848 L121.923,37.848 Z" id="Fill-16" fill="#39AB47"></path>
            </g>
        </g>
    </g>
</svg>