<?xml version="1.0" encoding="UTF-8" standalone="no"?>
<svg width="151px" height="66px" viewBox="0 0 151 66" version="1.1" xmlns="http://www.w3.org/2000/svg" xmlns:xlink="http://www.w3.org/1999/xlink" xmlns:sketch="http://www.bohemiancoding.com/sketch/ns">
    <!-- Generator: Sketch 3.2.2 (9983) - http://www.bohemiancoding.com/sketch -->
    <title>Bushes R</title>
    <desc>Created with Sketch.</desc>
    <defs></defs>
    <g id="Page-1" stroke="none" stroke-width="1" fill="none" fill-rule="evenodd" sketch:type="MSPage">
        <g id="Imported-Layers" sketch:type="MSLayerGroup" transform="translate(-502.000000, -195.000000)">
            <g id="Bushes-R" transform="translate(502.000000, 195.000000)" sketch:type="MSShapeGroup">
                <path d="M111.107,43.456 C111.191,42.894 111.236,42.321 111.236,41.736 C111.236,35.398 106.098,30.26 99.76,30.26 C99.493,30.26 99.231,30.273 98.969,30.291 C96.864,23.785 90.788,19.068 83.598,19 C82.372,12.699 76.826,7.941 70.166,7.941 C69.221,7.941 68.299,8.037 67.406,8.221 C65.924,3.6 61.593,0.255 56.481,0.255 C51.366,0.255 47.036,3.6 45.553,8.221 C44.661,8.037 43.738,7.941 42.793,7.941 C36.115,7.941 30.557,12.726 29.352,19.053 C28.923,19.019 28.491,18.996 28.053,18.996 C20.795,18.996 14.646,23.738 12.526,30.291 C12.265,30.273 12.002,30.26 11.734,30.26 C5.397,30.26 0.258,35.398 0.258,41.736 C0.258,42.321 0.303,42.894 0.387,43.456 L111.107,43.456 L111.107,43.456 Z M56.387,23.205 L56.481,23.208 L56.573,23.205 L56.573,23.21 L56.481,23.208 L56.386,23.21 L56.387,23.205 L56.387,23.205 Z" id="Fill-29" fill="#408740"></path>
                <path d="M150.154,65.057 C150.238,64.495 150.283,63.922 150.283,63.337 C150.283,56.999 145.145,51.86 138.807,51.86 C138.54,51.86 138.277,51.874 138.016,51.892 C135.911,45.386 129.835,40.669 122.644,40.601 C121.419,34.3 115.873,29.543 109.213,29.543 C108.268,29.543 107.346,29.639 106.453,29.82 C104.971,25.2 100.64,21.855 95.527,21.855 C90.413,21.855 86.083,25.2 84.6,29.82 C83.708,29.639 82.785,29.543 81.84,29.543 C75.162,29.543 69.604,34.326 68.398,40.653 C67.97,40.62 67.538,40.598 67.1,40.598 C59.842,40.598 53.693,45.339 51.573,51.892 C51.312,51.874 51.049,51.86 50.781,51.86 C44.443,51.86 39.305,56.999 39.305,63.337 C39.305,63.922 39.35,64.495 39.434,65.057 L150.154,65.057 L150.154,65.057 Z M95.434,44.806 L95.527,44.809 L95.62,44.806 L95.62,44.81 L95.527,44.809 L95.433,44.81 L95.434,44.806 L95.434,44.806 Z" id="Fill-30" fill="#39AB47"></path>
            </g>
        </g>
    </g>
</svg>