<?xml version="1.0" encoding="UTF-8" standalone="no"?>
<svg width="143px" height="134px" viewBox="0 0 143 134" version="1.1" xmlns="http://www.w3.org/2000/svg" xmlns:xlink="http://www.w3.org/1999/xlink" xmlns:sketch="http://www.bohemiancoding.com/sketch/ns">
    <!-- Generator: Sketch 3.2.2 (9983) - http://www.bohemiancoding.com/sketch -->
    <title>Dome L</title>
    <desc>Created with Sketch.</desc>
    <defs></defs>
    <g id="Page-1" stroke="none" stroke-width="1" fill="none" fill-rule="evenodd" sketch:type="MSPage">
        <g id="Imported-Layers" sketch:type="MSLayerGroup" transform="translate(-155.000000, -83.000000)">
            <g id="Dome-L" transform="translate(155.000000, 83.000000)" sketch:type="MSShapeGroup">
                <path d="M56.296,105.772 C33.211,105.772 16.686,109.042 16.227,114.454 C15.619,121.619 43.396,129.828 78.27,132.789 C86.803,133.514 94.966,133.856 102.445,133.856 C125.53,133.856 142.056,130.586 142.515,125.174 C143.123,118.008 115.346,109.799 80.473,106.84 C71.94,106.115 63.774,105.772 56.296,105.772" id="Fill-11" fill="#6B855A"></path>
                <path d="M66.513,124.457 C88.202,124.457 108.785,120.623 127.288,113.75 C136.349,101.889 141.742,87.077 141.742,70.999 C141.742,32.065 110.18,0.503 71.246,0.503 C32.312,0.503 0.749,32.065 0.749,70.999 C0.749,89.033 7.529,105.477 18.668,117.943 C33.658,122.156 49.752,124.457 66.513,124.457" id="Fill-12" fill="#FCF9DB"></path>
                <path d="M58.417,39.85 L83.208,39.85 L83.208,72.375 L58.417,72.375 L58.417,39.85 Z" id="Fill-13" fill="#82BCCA"></path>
                <path d="M30.207,39.85 L54.998,39.85 L54.998,72.375 L30.207,72.375 L30.207,39.85 Z" id="Fill-14" fill="#82BCCA"></path>
            </g>
        </g>
    </g>
</svg>