<?xml version="1.0" encoding="UTF-8" standalone="no"?>
<svg width="190px" height="172px" viewBox="0 0 190 172" version="1.1" xmlns="http://www.w3.org/2000/svg" xmlns:xlink="http://www.w3.org/1999/xlink" xmlns:sketch="http://www.bohemiancoding.com/sketch/ns">
    <!-- Generator: Sketch 3.2.2 (9983) - http://www.bohemiancoding.com/sketch -->
    <title>Dome C</title>
    <desc>Created with Sketch.</desc>
    <defs></defs>
    <g id="Page-1" stroke="none" stroke-width="1" fill="none" fill-rule="evenodd" sketch:type="MSPage">
        <g id="Imported-Layers" sketch:type="MSLayerGroup" transform="translate(-305.000000, -165.000000)">
            <g id="Dome-C" transform="translate(305.000000, 165.000000)" sketch:type="MSShapeGroup">
                <path d="M74.557,134.379 C43.867,134.379 21.898,138.727 21.286,145.921 C20.479,155.446 57.406,166.359 103.768,170.296 C115.109,171.258 125.964,171.714 135.904,171.714 C166.598,171.714 188.565,167.368 189.178,160.172 C189.985,150.644 153.057,139.731 106.696,135.798 C95.352,134.835 84.499,134.379 74.557,134.379" id="Fill-24" fill="#6B855A"></path>
                <path d="M83.426,156.559 C110.847,156.559 136.869,151.711 160.262,143.022 C171.718,128.026 160.912,106.646 160.912,86.319 C160.912,37.097 138.631,16.079 89.409,16.079 C40.186,16.079 23.912,37.097 23.912,86.319 C23.912,109.119 22.83,116.318 36.912,132.079 C55.863,137.405 62.236,156.559 83.426,156.559" id="Fill-25" fill="#B5B297"></path>
                <path d="M89.411,0.849 C40.187,0.849 0.284,40.751 0.284,89.974 C0.284,112.773 8.856,133.562 22.938,149.323 C41.89,154.649 62.236,157.559 83.426,157.559 C88.112,157.559 92.754,157.406 97.353,157.128 L97.353,79.204 L134.352,79.204 L134.352,151.78 C143.283,149.707 151.941,147.113 160.262,144.022 C171.719,129.026 178.535,110.301 178.535,89.974 C178.535,40.751 138.633,0.849 89.411,0.849" id="Fill-26" fill="#FCF9DB"></path>
                <path d="M65.127,79.475 L89.918,79.475 L89.918,112 L65.127,112 L65.127,79.475 Z" id="Fill-27" fill="#82BCCA"></path>
                <path d="M36.918,79.475 L61.709,79.475 L61.709,112 L36.918,112 L36.918,79.475 Z" id="Fill-28" fill="#82BCCA"></path>
            </g>
        </g>
    </g>
</svg>