<?xml version="1.0" encoding="UTF-8" standalone="no"?>
<svg width="142px" height="133px" viewBox="0 0 142 133" version="1.1" xmlns="http://www.w3.org/2000/svg" xmlns:xlink="http://www.w3.org/1999/xlink" xmlns:sketch="http://www.bohemiancoding.com/sketch/ns">
    <!-- Generator: Sketch 3.2.2 (9983) - http://www.bohemiancoding.com/sketch -->
    <title>Dome R</title>
    <desc>Created with Sketch.</desc>
    <defs></defs>
    <g id="Page-1" stroke="none" stroke-width="1" fill="none" fill-rule="evenodd" sketch:type="MSPage">
        <g id="Imported-Layers" sketch:type="MSLayerGroup" transform="translate(-502.000000, -89.000000)">
            <g id="Dome-R" transform="translate(502.000000, 89.000000)" sketch:type="MSShapeGroup">
                <path d="M55.023,104.415 C31.938,104.415 15.413,107.685 14.953,113.097 C14.346,120.262 42.123,128.471 76.996,131.432 C85.529,132.156 93.692,132.499 101.171,132.499 C124.256,132.499 140.782,129.228 141.242,123.816 C141.85,116.65 114.072,108.441 79.199,105.482 C70.666,104.758 62.501,104.415 55.023,104.415" id="Fill-17" fill="#6B855A"></path>
                <path d="M66.023,124 C87.712,124 108.295,120.166 126.798,113.293 C135.859,101.432 141.252,86.62 141.252,70.542 C141.252,31.608 109.69,0.046 70.756,0.046 C31.821,0.046 0.259,31.608 0.259,70.542 C0.259,88.576 7.039,105.019 18.178,117.486 C33.168,121.699 49.262,124 66.023,124" id="Fill-18" fill="#FCF9DB"></path>
                <path d="M94.794,45.76 L119.585,45.76 L119.585,78.285 L94.794,78.285 L94.794,45.76 Z" id="Fill-19" fill="#82BCCA"></path>
                <path d="M66.585,45.76 L91.376,45.76 L91.376,78.285 L66.585,78.285 L66.585,45.76 Z" id="Fill-20" fill="#82BCCA"></path>
            </g>
        </g>
    </g>
</svg>