<?xml version="1.0" encoding="UTF-8" standalone="no"?>
<svg width="174px" height="155px" viewBox="0 0 174 155" version="1.1" xmlns="http://www.w3.org/2000/svg" xmlns:xlink="http://www.w3.org/1999/xlink" xmlns:sketch="http://www.bohemiancoding.com/sketch/ns">
    <!-- Generator: Sketch 3.2.2 (9983) - http://www.bohemiancoding.com/sketch -->
    <title>Tree C</title>
    <desc>Created with Sketch.</desc>
    <defs></defs>
    <g id="Page-1" stroke="none" stroke-width="1" fill="none" fill-rule="evenodd" sketch:type="MSPage">
        <g id="Imported-Layers" sketch:type="MSLayerGroup" transform="translate(-274.000000, 0.000000)">
            <g id="Tree-C" transform="translate(274.000000, 0.000000)" sketch:type="MSShapeGroup">
                <path d="M97.978,143.911 C92.164,143.911 87.642,145.662 87.426,148.201 C87.179,151.103 92.652,153.938 99.648,154.532 C100.521,154.606 101.377,154.642 102.208,154.642 C108.022,154.642 112.545,152.891 112.762,150.352 C113.007,147.449 107.536,144.614 100.54,144.021 C99.665,143.946 98.808,143.911 97.978,143.911" id="Fill-3" fill="#6B855A"></path>
                <g>
                    <path d="M155.211,54.706 C153.068,54.706 151.016,55.073 149.101,55.739 C146.937,47.665 140.713,41.252 132.75,38.827 C132.048,23.895 119.723,12.004 104.617,12.004 C102.935,12.004 101.288,12.16 99.687,12.443 C92.493,5.099 82.469,0.536 71.376,0.536 C51.191,0.536 34.543,15.628 32.07,35.142 C22.092,39.444 15.099,49.347 15.048,60.892 C6.958,62.904 0.96,70.215 0.96,78.929 C0.96,89.195 9.283,97.518 19.549,97.518 C26.456,97.518 32.478,93.748 35.683,88.156 C38.08,88.819 40.602,89.181 43.21,89.181 C51.818,89.181 59.518,85.315 64.685,79.23 C66.861,79.601 69.094,79.804 71.376,79.804 C82.469,79.804 92.493,75.241 99.687,67.897 C100.519,68.044 101.366,68.155 102.222,68.227 C104.962,78.62 114.423,86.285 125.675,86.285 C130.581,86.285 135.143,84.824 138.959,82.319 C142.135,88.023 148.22,91.884 155.211,91.884 C165.477,91.884 173.799,83.561 173.799,73.295 C173.799,63.029 165.477,54.706 155.211,54.706" id="Fill-4" fill="#4A8B4D"></path>
                    <path d="M122.46,66.791 C124.228,64.685 124.517,61.991 123.103,60.803 C121.688,59.615 119.083,60.366 117.315,62.472 L103.271,79.2 C101.502,81.306 100.055,80.779 100.055,78.029 L100.055,63.643 C100.055,60.893 97.805,58.643 95.055,58.643 L92.609,58.643 C89.859,58.643 87.609,60.893 87.609,63.643 L87.609,95.29 C87.609,98.04 86.052,98.665 84.149,96.68 L62.579,74.18 C60.676,72.195 58.027,71.617 56.694,72.895 C55.36,74.174 55.826,76.844 57.73,78.83 L84.149,106.388 C86.052,108.373 87.609,112.247 87.609,114.997 L87.609,145.754 C87.609,148.504 89.859,150.754 92.609,150.754 L95.055,150.754 C97.805,150.754 100.055,148.504 100.055,145.754 L100.055,98.477 C100.055,95.727 101.502,91.753 103.271,89.647 L122.46,66.791" id="Fill-5" fill="#CC9066"></path>
                </g>
            </g>
        </g>
    </g>
</svg>