<?xml version="1.0" encoding="UTF-8" standalone="no"?>
<svg width="205px" height="184px" viewBox="0 0 205 184" version="1.1" xmlns="http://www.w3.org/2000/svg" xmlns:xlink="http://www.w3.org/1999/xlink" xmlns:sketch="http://www.bohemiancoding.com/sketch/ns">
    <!-- Generator: Sketch 3.2.2 (9983) - http://www.bohemiancoding.com/sketch -->
    <title>Tree L</title>
    <desc>Created with Sketch.</desc>
    <defs></defs>
    <g id="Page-1" stroke="none" stroke-width="1" fill="none" fill-rule="evenodd" sketch:type="MSPage">
        <g id="Imported-Layers" sketch:type="MSLayerGroup" transform="translate(-368.000000, -15.000000)">
            <g id="Tree-L" transform="translate(368.000000, 15.000000)" sketch:type="MSShapeGroup">
                <path d="M115.031,170.514 C108.151,170.515 102.801,172.586 102.546,175.592 C102.253,179.025 108.729,182.381 117.008,183.084 C118.041,183.172 119.053,183.214 120.034,183.214 C126.916,183.214 132.271,181.142 132.526,178.137 C132.817,174.701 126.343,171.348 118.063,170.644 C117.028,170.557 116.015,170.514 115.031,170.514" id="Fill-8" fill="#6B855A"></path>
                <g>
                    <path d="M182.759,64.955 C180.225,64.955 177.794,65.388 175.528,66.177 C172.969,56.622 165.604,49.034 156.18,46.164 C155.35,28.494 140.764,14.422 122.889,14.422 C120.898,14.422 118.949,14.606 117.054,14.941 C108.541,6.25 96.68,0.851 83.553,0.851 C59.667,0.851 39.966,18.711 37.04,41.802 C25.232,46.894 16.956,58.612 16.897,72.274 C7.322,74.655 0.225,83.307 0.225,93.618 C0.225,105.767 10.074,115.615 22.222,115.615 C30.396,115.615 37.523,111.154 41.315,104.537 C44.151,105.322 47.136,105.75 50.222,105.75 C60.408,105.75 69.521,101.175 75.635,93.975 C78.21,94.413 80.853,94.654 83.553,94.654 C96.68,94.654 108.541,89.254 117.054,80.563 C118.04,80.738 119.041,80.869 120.055,80.955 C123.297,93.252 134.492,102.323 147.808,102.323 C153.613,102.323 159.012,100.594 163.527,97.63 C167.284,104.38 174.486,108.949 182.759,108.949 C194.907,108.949 204.756,99.1 204.756,86.952 C204.756,74.803 194.907,64.955 182.759,64.955" id="Fill-9" fill="#41A64C"></path>
                    <path d="M144.593,78.553 C146.361,76.447 146.437,73.574 144.764,72.168 C143.089,70.763 140.271,71.336 138.504,73.442 L120.705,94.641 C118.937,96.747 117.49,96.22 117.49,93.47 L117.49,74.613 C117.49,71.863 115.24,69.613 112.49,69.613 L107.763,69.613 C105.013,69.613 102.763,71.863 102.763,74.613 L102.763,113.895 C102.763,116.646 101.205,117.271 99.303,115.286 L72.508,87.337 C70.606,85.352 67.757,84.965 66.178,86.478 C64.6,87.992 64.865,90.853 66.769,92.839 L99.303,126.773 C101.206,128.759 102.763,132.633 102.763,135.383 L102.763,173.613 C102.763,176.363 105.013,178.613 107.763,178.613 L112.49,178.613 C115.24,178.613 117.49,176.363 117.49,173.613 L117.49,115.833 C117.49,113.083 118.937,109.11 120.705,107.004 L144.593,78.553" id="Fill-10" fill="#CC9066"></path>
                </g>
            </g>
        </g>
    </g>
</svg>