<?xml version="1.0" encoding="UTF-8" standalone="no"?>
<svg width="205px" height="183px" viewBox="0 0 205 183" version="1.1" xmlns="http://www.w3.org/2000/svg" xmlns:xlink="http://www.w3.org/1999/xlink" xmlns:sketch="http://www.bohemiancoding.com/sketch/ns">
    <!-- Generator: Sketch 3.2.2 (9983) - http://www.bohemiancoding.com/sketch -->
    <title>Tree R</title>
    <desc>Created with Sketch.</desc>
    <defs></defs>
    <g id="Page-1" stroke="none" stroke-width="1" fill="none" fill-rule="evenodd" sketch:type="MSPage">
        <g id="Imported-Layers" sketch:type="MSLayerGroup" transform="translate(-191.000000, -87.000000)">
            <g id="Tree-R" transform="translate(191.000000, 87.000000)" sketch:type="MSShapeGroup">
                <path d="M100.019,170.253 C93.14,170.253 87.789,172.324 87.535,175.33 C87.242,178.764 93.718,182.117 101.997,182.82 C103.032,182.908 104.045,182.95 105.028,182.95 C111.907,182.95 117.26,180.879 117.515,177.875 C117.806,174.439 111.332,171.084 103.052,170.383 C102.017,170.295 101.003,170.253 100.019,170.253" id="Fill-21" fill="#6B855A"></path>
                <g id="Tree-L">
                    <path d="M22.256,64.692 C24.79,64.692 27.221,65.125 29.487,65.914 C32.046,56.359 39.412,48.771 48.835,45.901 C49.666,28.231 64.251,14.159 82.127,14.159 C84.118,14.159 86.066,14.344 87.961,14.679 C96.474,5.988 108.335,0.588 121.462,0.588 C145.348,0.588 165.049,18.448 167.975,41.54 C179.783,46.631 188.059,58.35 188.118,72.011 C197.693,74.393 204.79,83.044 204.79,93.355 C204.79,105.504 194.941,115.352 182.793,115.352 C174.62,115.352 167.493,110.891 163.701,104.273 C160.864,105.059 157.879,105.487 154.794,105.487 C144.607,105.487 135.495,100.912 129.38,93.713 C126.805,94.15 124.163,94.391 121.462,94.391 C108.335,94.391 96.474,88.992 87.961,80.301 C86.975,80.475 85.974,80.606 84.96,80.691 C81.718,92.99 70.523,102.06 57.207,102.06 C51.402,102.06 46.003,100.331 41.488,97.367 C37.731,104.117 30.529,108.685 22.256,108.685 C10.108,108.685 0.259,98.838 0.259,86.689 C0.259,74.54 10.108,64.692 22.256,64.692" id="Fill-22" fill="#72B943"></path>
                    <path d="M60.423,78.29 C58.654,76.185 58.578,73.311 60.252,71.906 C61.926,70.5 64.743,71.073 66.512,73.179 L84.31,94.378 C86.078,96.484 87.525,95.957 87.525,93.207 L87.525,74.35 C87.525,71.6 89.775,69.35 92.525,69.35 L97.252,69.35 C100.002,69.35 102.252,71.6 102.252,74.35 L102.252,113.633 C102.252,116.383 103.81,117.009 105.713,115.023 L132.507,87.074 C134.41,85.089 137.259,84.703 138.837,86.216 C140.415,87.729 140.149,90.591 138.246,92.576 L105.713,126.511 C103.81,128.496 102.252,132.37 102.252,135.12 L102.252,173.35 C102.252,176.1 100.002,178.35 97.252,178.35 L92.525,178.35 C89.775,178.35 87.525,176.1 87.525,173.35 L87.525,115.57 C87.525,112.82 86.078,108.847 84.31,106.741 L60.423,78.29" id="Fill-23" fill="#CC9066"></path>
                </g>
            </g>
        </g>
    </g>
</svg>